%TF.GenerationSoftware,KiCad,Pcbnew,9.0.6*%
%TF.CreationDate,2025-11-25T22:15:10-08:00*%
%TF.ProjectId,idkpad,69646b70-6164-42e6-9b69-6361645f7063,rev?*%
%TF.SameCoordinates,Original*%
%TF.FileFunction,Legend,Top*%
%TF.FilePolarity,Positive*%
%FSLAX46Y46*%
G04 Gerber Fmt 4.6, Leading zero omitted, Abs format (unit mm)*
G04 Created by KiCad (PCBNEW 9.0.6) date 2025-11-25 22:15:10*
%MOMM*%
%LPD*%
G01*
G04 APERTURE LIST*
%ADD10C,0.100000*%
%ADD11C,0.120000*%
%ADD12C,0.150000*%
%ADD13C,0.118187*%
%ADD14C,0.127000*%
%ADD15C,0.200000*%
G04 APERTURE END LIST*
D10*
X136921875Y-109537500D02*
X110728125Y-109537500D01*
X110728125Y-73818750D02*
X136921875Y-73818750D01*
X136921875Y-73818750D02*
X136921875Y-109537500D01*
X110728125Y-109537500D02*
X110728125Y-73818750D01*
D11*
X145571428Y-103169295D02*
X145571428Y-103397867D01*
X145411428Y-102917867D02*
X145571428Y-103169295D01*
X145571428Y-103169295D02*
X145731428Y-102917867D01*
X146142857Y-103397867D02*
X145868571Y-103397867D01*
X146005714Y-103397867D02*
X146005714Y-102917867D01*
X146005714Y-102917867D02*
X145960000Y-102986438D01*
X145960000Y-102986438D02*
X145914285Y-103032152D01*
X145914285Y-103032152D02*
X145868571Y-103055010D01*
D12*
X174103333Y-108456819D02*
X173770000Y-107980628D01*
X173531905Y-108456819D02*
X173531905Y-107456819D01*
X173531905Y-107456819D02*
X173912857Y-107456819D01*
X173912857Y-107456819D02*
X174008095Y-107504438D01*
X174008095Y-107504438D02*
X174055714Y-107552057D01*
X174055714Y-107552057D02*
X174103333Y-107647295D01*
X174103333Y-107647295D02*
X174103333Y-107790152D01*
X174103333Y-107790152D02*
X174055714Y-107885390D01*
X174055714Y-107885390D02*
X174008095Y-107933009D01*
X174008095Y-107933009D02*
X173912857Y-107980628D01*
X173912857Y-107980628D02*
X173531905Y-107980628D01*
X174960476Y-107790152D02*
X174960476Y-108456819D01*
X174722381Y-107409200D02*
X174484286Y-108123485D01*
X174484286Y-108123485D02*
X175103333Y-108123485D01*
X180427333Y-115210819D02*
X180094000Y-114734628D01*
X179855905Y-115210819D02*
X179855905Y-114210819D01*
X179855905Y-114210819D02*
X180236857Y-114210819D01*
X180236857Y-114210819D02*
X180332095Y-114258438D01*
X180332095Y-114258438D02*
X180379714Y-114306057D01*
X180379714Y-114306057D02*
X180427333Y-114401295D01*
X180427333Y-114401295D02*
X180427333Y-114544152D01*
X180427333Y-114544152D02*
X180379714Y-114639390D01*
X180379714Y-114639390D02*
X180332095Y-114687009D01*
X180332095Y-114687009D02*
X180236857Y-114734628D01*
X180236857Y-114734628D02*
X179855905Y-114734628D01*
X181332095Y-114210819D02*
X180855905Y-114210819D01*
X180855905Y-114210819D02*
X180808286Y-114687009D01*
X180808286Y-114687009D02*
X180855905Y-114639390D01*
X180855905Y-114639390D02*
X180951143Y-114591771D01*
X180951143Y-114591771D02*
X181189238Y-114591771D01*
X181189238Y-114591771D02*
X181284476Y-114639390D01*
X181284476Y-114639390D02*
X181332095Y-114687009D01*
X181332095Y-114687009D02*
X181379714Y-114782247D01*
X181379714Y-114782247D02*
X181379714Y-115020342D01*
X181379714Y-115020342D02*
X181332095Y-115115580D01*
X181332095Y-115115580D02*
X181284476Y-115163200D01*
X181284476Y-115163200D02*
X181189238Y-115210819D01*
X181189238Y-115210819D02*
X180951143Y-115210819D01*
X180951143Y-115210819D02*
X180855905Y-115163200D01*
X180855905Y-115163200D02*
X180808286Y-115115580D01*
X151405819Y-89294666D02*
X150929628Y-89627999D01*
X151405819Y-89866094D02*
X150405819Y-89866094D01*
X150405819Y-89866094D02*
X150405819Y-89485142D01*
X150405819Y-89485142D02*
X150453438Y-89389904D01*
X150453438Y-89389904D02*
X150501057Y-89342285D01*
X150501057Y-89342285D02*
X150596295Y-89294666D01*
X150596295Y-89294666D02*
X150739152Y-89294666D01*
X150739152Y-89294666D02*
X150834390Y-89342285D01*
X150834390Y-89342285D02*
X150882009Y-89389904D01*
X150882009Y-89389904D02*
X150929628Y-89485142D01*
X150929628Y-89485142D02*
X150929628Y-89866094D01*
X150501057Y-88913713D02*
X150453438Y-88866094D01*
X150453438Y-88866094D02*
X150405819Y-88770856D01*
X150405819Y-88770856D02*
X150405819Y-88532761D01*
X150405819Y-88532761D02*
X150453438Y-88437523D01*
X150453438Y-88437523D02*
X150501057Y-88389904D01*
X150501057Y-88389904D02*
X150596295Y-88342285D01*
X150596295Y-88342285D02*
X150691533Y-88342285D01*
X150691533Y-88342285D02*
X150834390Y-88389904D01*
X150834390Y-88389904D02*
X151405819Y-88961332D01*
X151405819Y-88961332D02*
X151405819Y-88342285D01*
X153691819Y-89294666D02*
X153215628Y-89627999D01*
X153691819Y-89866094D02*
X152691819Y-89866094D01*
X152691819Y-89866094D02*
X152691819Y-89485142D01*
X152691819Y-89485142D02*
X152739438Y-89389904D01*
X152739438Y-89389904D02*
X152787057Y-89342285D01*
X152787057Y-89342285D02*
X152882295Y-89294666D01*
X152882295Y-89294666D02*
X153025152Y-89294666D01*
X153025152Y-89294666D02*
X153120390Y-89342285D01*
X153120390Y-89342285D02*
X153168009Y-89389904D01*
X153168009Y-89389904D02*
X153215628Y-89485142D01*
X153215628Y-89485142D02*
X153215628Y-89866094D01*
X153691819Y-88342285D02*
X153691819Y-88913713D01*
X153691819Y-88627999D02*
X152691819Y-88627999D01*
X152691819Y-88627999D02*
X152834676Y-88723237D01*
X152834676Y-88723237D02*
X152929914Y-88818475D01*
X152929914Y-88818475D02*
X152977533Y-88913713D01*
X160641333Y-116584819D02*
X160308000Y-116108628D01*
X160069905Y-116584819D02*
X160069905Y-115584819D01*
X160069905Y-115584819D02*
X160450857Y-115584819D01*
X160450857Y-115584819D02*
X160546095Y-115632438D01*
X160546095Y-115632438D02*
X160593714Y-115680057D01*
X160593714Y-115680057D02*
X160641333Y-115775295D01*
X160641333Y-115775295D02*
X160641333Y-115918152D01*
X160641333Y-115918152D02*
X160593714Y-116013390D01*
X160593714Y-116013390D02*
X160546095Y-116061009D01*
X160546095Y-116061009D02*
X160450857Y-116108628D01*
X160450857Y-116108628D02*
X160069905Y-116108628D01*
X160974667Y-115584819D02*
X161593714Y-115584819D01*
X161593714Y-115584819D02*
X161260381Y-115965771D01*
X161260381Y-115965771D02*
X161403238Y-115965771D01*
X161403238Y-115965771D02*
X161498476Y-116013390D01*
X161498476Y-116013390D02*
X161546095Y-116061009D01*
X161546095Y-116061009D02*
X161593714Y-116156247D01*
X161593714Y-116156247D02*
X161593714Y-116394342D01*
X161593714Y-116394342D02*
X161546095Y-116489580D01*
X161546095Y-116489580D02*
X161498476Y-116537200D01*
X161498476Y-116537200D02*
X161403238Y-116584819D01*
X161403238Y-116584819D02*
X161117524Y-116584819D01*
X161117524Y-116584819D02*
X161022286Y-116537200D01*
X161022286Y-116537200D02*
X160974667Y-116489580D01*
X93440476Y-87657200D02*
X93583333Y-87704819D01*
X93583333Y-87704819D02*
X93821428Y-87704819D01*
X93821428Y-87704819D02*
X93916666Y-87657200D01*
X93916666Y-87657200D02*
X93964285Y-87609580D01*
X93964285Y-87609580D02*
X94011904Y-87514342D01*
X94011904Y-87514342D02*
X94011904Y-87419104D01*
X94011904Y-87419104D02*
X93964285Y-87323866D01*
X93964285Y-87323866D02*
X93916666Y-87276247D01*
X93916666Y-87276247D02*
X93821428Y-87228628D01*
X93821428Y-87228628D02*
X93630952Y-87181009D01*
X93630952Y-87181009D02*
X93535714Y-87133390D01*
X93535714Y-87133390D02*
X93488095Y-87085771D01*
X93488095Y-87085771D02*
X93440476Y-86990533D01*
X93440476Y-86990533D02*
X93440476Y-86895295D01*
X93440476Y-86895295D02*
X93488095Y-86800057D01*
X93488095Y-86800057D02*
X93535714Y-86752438D01*
X93535714Y-86752438D02*
X93630952Y-86704819D01*
X93630952Y-86704819D02*
X93869047Y-86704819D01*
X93869047Y-86704819D02*
X94011904Y-86752438D01*
X94345238Y-86704819D02*
X94583333Y-87704819D01*
X94583333Y-87704819D02*
X94773809Y-86990533D01*
X94773809Y-86990533D02*
X94964285Y-87704819D01*
X94964285Y-87704819D02*
X95202381Y-86704819D01*
X96107142Y-87704819D02*
X95535714Y-87704819D01*
X95821428Y-87704819D02*
X95821428Y-86704819D01*
X95821428Y-86704819D02*
X95726190Y-86847676D01*
X95726190Y-86847676D02*
X95630952Y-86942914D01*
X95630952Y-86942914D02*
X95535714Y-86990533D01*
X97059523Y-87704819D02*
X96488095Y-87704819D01*
X96773809Y-87704819D02*
X96773809Y-86704819D01*
X96773809Y-86704819D02*
X96678571Y-86847676D01*
X96678571Y-86847676D02*
X96583333Y-86942914D01*
X96583333Y-86942914D02*
X96488095Y-86990533D01*
X129074819Y-118175333D02*
X129789104Y-118175333D01*
X129789104Y-118175333D02*
X129931961Y-118222952D01*
X129931961Y-118222952D02*
X130027200Y-118318190D01*
X130027200Y-118318190D02*
X130074819Y-118461047D01*
X130074819Y-118461047D02*
X130074819Y-118556285D01*
X130074819Y-117175333D02*
X130074819Y-117746761D01*
X130074819Y-117461047D02*
X129074819Y-117461047D01*
X129074819Y-117461047D02*
X129217676Y-117556285D01*
X129217676Y-117556285D02*
X129312914Y-117651523D01*
X129312914Y-117651523D02*
X129360533Y-117746761D01*
X93916667Y-49557200D02*
X94059524Y-49604819D01*
X94059524Y-49604819D02*
X94297619Y-49604819D01*
X94297619Y-49604819D02*
X94392857Y-49557200D01*
X94392857Y-49557200D02*
X94440476Y-49509580D01*
X94440476Y-49509580D02*
X94488095Y-49414342D01*
X94488095Y-49414342D02*
X94488095Y-49319104D01*
X94488095Y-49319104D02*
X94440476Y-49223866D01*
X94440476Y-49223866D02*
X94392857Y-49176247D01*
X94392857Y-49176247D02*
X94297619Y-49128628D01*
X94297619Y-49128628D02*
X94107143Y-49081009D01*
X94107143Y-49081009D02*
X94011905Y-49033390D01*
X94011905Y-49033390D02*
X93964286Y-48985771D01*
X93964286Y-48985771D02*
X93916667Y-48890533D01*
X93916667Y-48890533D02*
X93916667Y-48795295D01*
X93916667Y-48795295D02*
X93964286Y-48700057D01*
X93964286Y-48700057D02*
X94011905Y-48652438D01*
X94011905Y-48652438D02*
X94107143Y-48604819D01*
X94107143Y-48604819D02*
X94345238Y-48604819D01*
X94345238Y-48604819D02*
X94488095Y-48652438D01*
X94821429Y-48604819D02*
X95059524Y-49604819D01*
X95059524Y-49604819D02*
X95250000Y-48890533D01*
X95250000Y-48890533D02*
X95440476Y-49604819D01*
X95440476Y-49604819D02*
X95678572Y-48604819D01*
X95964286Y-48604819D02*
X96583333Y-48604819D01*
X96583333Y-48604819D02*
X96250000Y-48985771D01*
X96250000Y-48985771D02*
X96392857Y-48985771D01*
X96392857Y-48985771D02*
X96488095Y-49033390D01*
X96488095Y-49033390D02*
X96535714Y-49081009D01*
X96535714Y-49081009D02*
X96583333Y-49176247D01*
X96583333Y-49176247D02*
X96583333Y-49414342D01*
X96583333Y-49414342D02*
X96535714Y-49509580D01*
X96535714Y-49509580D02*
X96488095Y-49557200D01*
X96488095Y-49557200D02*
X96392857Y-49604819D01*
X96392857Y-49604819D02*
X96107143Y-49604819D01*
X96107143Y-49604819D02*
X96011905Y-49557200D01*
X96011905Y-49557200D02*
X95964286Y-49509580D01*
X93440476Y-106707200D02*
X93583333Y-106754819D01*
X93583333Y-106754819D02*
X93821428Y-106754819D01*
X93821428Y-106754819D02*
X93916666Y-106707200D01*
X93916666Y-106707200D02*
X93964285Y-106659580D01*
X93964285Y-106659580D02*
X94011904Y-106564342D01*
X94011904Y-106564342D02*
X94011904Y-106469104D01*
X94011904Y-106469104D02*
X93964285Y-106373866D01*
X93964285Y-106373866D02*
X93916666Y-106326247D01*
X93916666Y-106326247D02*
X93821428Y-106278628D01*
X93821428Y-106278628D02*
X93630952Y-106231009D01*
X93630952Y-106231009D02*
X93535714Y-106183390D01*
X93535714Y-106183390D02*
X93488095Y-106135771D01*
X93488095Y-106135771D02*
X93440476Y-106040533D01*
X93440476Y-106040533D02*
X93440476Y-105945295D01*
X93440476Y-105945295D02*
X93488095Y-105850057D01*
X93488095Y-105850057D02*
X93535714Y-105802438D01*
X93535714Y-105802438D02*
X93630952Y-105754819D01*
X93630952Y-105754819D02*
X93869047Y-105754819D01*
X93869047Y-105754819D02*
X94011904Y-105802438D01*
X94345238Y-105754819D02*
X94583333Y-106754819D01*
X94583333Y-106754819D02*
X94773809Y-106040533D01*
X94773809Y-106040533D02*
X94964285Y-106754819D01*
X94964285Y-106754819D02*
X95202381Y-105754819D01*
X96107142Y-106754819D02*
X95535714Y-106754819D01*
X95821428Y-106754819D02*
X95821428Y-105754819D01*
X95821428Y-105754819D02*
X95726190Y-105897676D01*
X95726190Y-105897676D02*
X95630952Y-105992914D01*
X95630952Y-105992914D02*
X95535714Y-106040533D01*
X97011904Y-105754819D02*
X96535714Y-105754819D01*
X96535714Y-105754819D02*
X96488095Y-106231009D01*
X96488095Y-106231009D02*
X96535714Y-106183390D01*
X96535714Y-106183390D02*
X96630952Y-106135771D01*
X96630952Y-106135771D02*
X96869047Y-106135771D01*
X96869047Y-106135771D02*
X96964285Y-106183390D01*
X96964285Y-106183390D02*
X97011904Y-106231009D01*
X97011904Y-106231009D02*
X97059523Y-106326247D01*
X97059523Y-106326247D02*
X97059523Y-106564342D01*
X97059523Y-106564342D02*
X97011904Y-106659580D01*
X97011904Y-106659580D02*
X96964285Y-106707200D01*
X96964285Y-106707200D02*
X96869047Y-106754819D01*
X96869047Y-106754819D02*
X96630952Y-106754819D01*
X96630952Y-106754819D02*
X96535714Y-106707200D01*
X96535714Y-106707200D02*
X96488095Y-106659580D01*
X74390476Y-106707200D02*
X74533333Y-106754819D01*
X74533333Y-106754819D02*
X74771428Y-106754819D01*
X74771428Y-106754819D02*
X74866666Y-106707200D01*
X74866666Y-106707200D02*
X74914285Y-106659580D01*
X74914285Y-106659580D02*
X74961904Y-106564342D01*
X74961904Y-106564342D02*
X74961904Y-106469104D01*
X74961904Y-106469104D02*
X74914285Y-106373866D01*
X74914285Y-106373866D02*
X74866666Y-106326247D01*
X74866666Y-106326247D02*
X74771428Y-106278628D01*
X74771428Y-106278628D02*
X74580952Y-106231009D01*
X74580952Y-106231009D02*
X74485714Y-106183390D01*
X74485714Y-106183390D02*
X74438095Y-106135771D01*
X74438095Y-106135771D02*
X74390476Y-106040533D01*
X74390476Y-106040533D02*
X74390476Y-105945295D01*
X74390476Y-105945295D02*
X74438095Y-105850057D01*
X74438095Y-105850057D02*
X74485714Y-105802438D01*
X74485714Y-105802438D02*
X74580952Y-105754819D01*
X74580952Y-105754819D02*
X74819047Y-105754819D01*
X74819047Y-105754819D02*
X74961904Y-105802438D01*
X75295238Y-105754819D02*
X75533333Y-106754819D01*
X75533333Y-106754819D02*
X75723809Y-106040533D01*
X75723809Y-106040533D02*
X75914285Y-106754819D01*
X75914285Y-106754819D02*
X76152381Y-105754819D01*
X77057142Y-106754819D02*
X76485714Y-106754819D01*
X76771428Y-106754819D02*
X76771428Y-105754819D01*
X76771428Y-105754819D02*
X76676190Y-105897676D01*
X76676190Y-105897676D02*
X76580952Y-105992914D01*
X76580952Y-105992914D02*
X76485714Y-106040533D01*
X77914285Y-106088152D02*
X77914285Y-106754819D01*
X77676190Y-105707200D02*
X77438095Y-106421485D01*
X77438095Y-106421485D02*
X78057142Y-106421485D01*
X55340476Y-106707200D02*
X55483333Y-106754819D01*
X55483333Y-106754819D02*
X55721428Y-106754819D01*
X55721428Y-106754819D02*
X55816666Y-106707200D01*
X55816666Y-106707200D02*
X55864285Y-106659580D01*
X55864285Y-106659580D02*
X55911904Y-106564342D01*
X55911904Y-106564342D02*
X55911904Y-106469104D01*
X55911904Y-106469104D02*
X55864285Y-106373866D01*
X55864285Y-106373866D02*
X55816666Y-106326247D01*
X55816666Y-106326247D02*
X55721428Y-106278628D01*
X55721428Y-106278628D02*
X55530952Y-106231009D01*
X55530952Y-106231009D02*
X55435714Y-106183390D01*
X55435714Y-106183390D02*
X55388095Y-106135771D01*
X55388095Y-106135771D02*
X55340476Y-106040533D01*
X55340476Y-106040533D02*
X55340476Y-105945295D01*
X55340476Y-105945295D02*
X55388095Y-105850057D01*
X55388095Y-105850057D02*
X55435714Y-105802438D01*
X55435714Y-105802438D02*
X55530952Y-105754819D01*
X55530952Y-105754819D02*
X55769047Y-105754819D01*
X55769047Y-105754819D02*
X55911904Y-105802438D01*
X56245238Y-105754819D02*
X56483333Y-106754819D01*
X56483333Y-106754819D02*
X56673809Y-106040533D01*
X56673809Y-106040533D02*
X56864285Y-106754819D01*
X56864285Y-106754819D02*
X57102381Y-105754819D01*
X58007142Y-106754819D02*
X57435714Y-106754819D01*
X57721428Y-106754819D02*
X57721428Y-105754819D01*
X57721428Y-105754819D02*
X57626190Y-105897676D01*
X57626190Y-105897676D02*
X57530952Y-105992914D01*
X57530952Y-105992914D02*
X57435714Y-106040533D01*
X58340476Y-105754819D02*
X58959523Y-105754819D01*
X58959523Y-105754819D02*
X58626190Y-106135771D01*
X58626190Y-106135771D02*
X58769047Y-106135771D01*
X58769047Y-106135771D02*
X58864285Y-106183390D01*
X58864285Y-106183390D02*
X58911904Y-106231009D01*
X58911904Y-106231009D02*
X58959523Y-106326247D01*
X58959523Y-106326247D02*
X58959523Y-106564342D01*
X58959523Y-106564342D02*
X58911904Y-106659580D01*
X58911904Y-106659580D02*
X58864285Y-106707200D01*
X58864285Y-106707200D02*
X58769047Y-106754819D01*
X58769047Y-106754819D02*
X58483333Y-106754819D01*
X58483333Y-106754819D02*
X58388095Y-106707200D01*
X58388095Y-106707200D02*
X58340476Y-106659580D01*
X74390476Y-87657200D02*
X74533333Y-87704819D01*
X74533333Y-87704819D02*
X74771428Y-87704819D01*
X74771428Y-87704819D02*
X74866666Y-87657200D01*
X74866666Y-87657200D02*
X74914285Y-87609580D01*
X74914285Y-87609580D02*
X74961904Y-87514342D01*
X74961904Y-87514342D02*
X74961904Y-87419104D01*
X74961904Y-87419104D02*
X74914285Y-87323866D01*
X74914285Y-87323866D02*
X74866666Y-87276247D01*
X74866666Y-87276247D02*
X74771428Y-87228628D01*
X74771428Y-87228628D02*
X74580952Y-87181009D01*
X74580952Y-87181009D02*
X74485714Y-87133390D01*
X74485714Y-87133390D02*
X74438095Y-87085771D01*
X74438095Y-87085771D02*
X74390476Y-86990533D01*
X74390476Y-86990533D02*
X74390476Y-86895295D01*
X74390476Y-86895295D02*
X74438095Y-86800057D01*
X74438095Y-86800057D02*
X74485714Y-86752438D01*
X74485714Y-86752438D02*
X74580952Y-86704819D01*
X74580952Y-86704819D02*
X74819047Y-86704819D01*
X74819047Y-86704819D02*
X74961904Y-86752438D01*
X75295238Y-86704819D02*
X75533333Y-87704819D01*
X75533333Y-87704819D02*
X75723809Y-86990533D01*
X75723809Y-86990533D02*
X75914285Y-87704819D01*
X75914285Y-87704819D02*
X76152381Y-86704819D01*
X77057142Y-87704819D02*
X76485714Y-87704819D01*
X76771428Y-87704819D02*
X76771428Y-86704819D01*
X76771428Y-86704819D02*
X76676190Y-86847676D01*
X76676190Y-86847676D02*
X76580952Y-86942914D01*
X76580952Y-86942914D02*
X76485714Y-86990533D01*
X77676190Y-86704819D02*
X77771428Y-86704819D01*
X77771428Y-86704819D02*
X77866666Y-86752438D01*
X77866666Y-86752438D02*
X77914285Y-86800057D01*
X77914285Y-86800057D02*
X77961904Y-86895295D01*
X77961904Y-86895295D02*
X78009523Y-87085771D01*
X78009523Y-87085771D02*
X78009523Y-87323866D01*
X78009523Y-87323866D02*
X77961904Y-87514342D01*
X77961904Y-87514342D02*
X77914285Y-87609580D01*
X77914285Y-87609580D02*
X77866666Y-87657200D01*
X77866666Y-87657200D02*
X77771428Y-87704819D01*
X77771428Y-87704819D02*
X77676190Y-87704819D01*
X77676190Y-87704819D02*
X77580952Y-87657200D01*
X77580952Y-87657200D02*
X77533333Y-87609580D01*
X77533333Y-87609580D02*
X77485714Y-87514342D01*
X77485714Y-87514342D02*
X77438095Y-87323866D01*
X77438095Y-87323866D02*
X77438095Y-87085771D01*
X77438095Y-87085771D02*
X77485714Y-86895295D01*
X77485714Y-86895295D02*
X77533333Y-86800057D01*
X77533333Y-86800057D02*
X77580952Y-86752438D01*
X77580952Y-86752438D02*
X77676190Y-86704819D01*
X55816667Y-87657200D02*
X55959524Y-87704819D01*
X55959524Y-87704819D02*
X56197619Y-87704819D01*
X56197619Y-87704819D02*
X56292857Y-87657200D01*
X56292857Y-87657200D02*
X56340476Y-87609580D01*
X56340476Y-87609580D02*
X56388095Y-87514342D01*
X56388095Y-87514342D02*
X56388095Y-87419104D01*
X56388095Y-87419104D02*
X56340476Y-87323866D01*
X56340476Y-87323866D02*
X56292857Y-87276247D01*
X56292857Y-87276247D02*
X56197619Y-87228628D01*
X56197619Y-87228628D02*
X56007143Y-87181009D01*
X56007143Y-87181009D02*
X55911905Y-87133390D01*
X55911905Y-87133390D02*
X55864286Y-87085771D01*
X55864286Y-87085771D02*
X55816667Y-86990533D01*
X55816667Y-86990533D02*
X55816667Y-86895295D01*
X55816667Y-86895295D02*
X55864286Y-86800057D01*
X55864286Y-86800057D02*
X55911905Y-86752438D01*
X55911905Y-86752438D02*
X56007143Y-86704819D01*
X56007143Y-86704819D02*
X56245238Y-86704819D01*
X56245238Y-86704819D02*
X56388095Y-86752438D01*
X56721429Y-86704819D02*
X56959524Y-87704819D01*
X56959524Y-87704819D02*
X57150000Y-86990533D01*
X57150000Y-86990533D02*
X57340476Y-87704819D01*
X57340476Y-87704819D02*
X57578572Y-86704819D01*
X58007143Y-87704819D02*
X58197619Y-87704819D01*
X58197619Y-87704819D02*
X58292857Y-87657200D01*
X58292857Y-87657200D02*
X58340476Y-87609580D01*
X58340476Y-87609580D02*
X58435714Y-87466723D01*
X58435714Y-87466723D02*
X58483333Y-87276247D01*
X58483333Y-87276247D02*
X58483333Y-86895295D01*
X58483333Y-86895295D02*
X58435714Y-86800057D01*
X58435714Y-86800057D02*
X58388095Y-86752438D01*
X58388095Y-86752438D02*
X58292857Y-86704819D01*
X58292857Y-86704819D02*
X58102381Y-86704819D01*
X58102381Y-86704819D02*
X58007143Y-86752438D01*
X58007143Y-86752438D02*
X57959524Y-86800057D01*
X57959524Y-86800057D02*
X57911905Y-86895295D01*
X57911905Y-86895295D02*
X57911905Y-87133390D01*
X57911905Y-87133390D02*
X57959524Y-87228628D01*
X57959524Y-87228628D02*
X58007143Y-87276247D01*
X58007143Y-87276247D02*
X58102381Y-87323866D01*
X58102381Y-87323866D02*
X58292857Y-87323866D01*
X58292857Y-87323866D02*
X58388095Y-87276247D01*
X58388095Y-87276247D02*
X58435714Y-87228628D01*
X58435714Y-87228628D02*
X58483333Y-87133390D01*
X93916667Y-68607200D02*
X94059524Y-68654819D01*
X94059524Y-68654819D02*
X94297619Y-68654819D01*
X94297619Y-68654819D02*
X94392857Y-68607200D01*
X94392857Y-68607200D02*
X94440476Y-68559580D01*
X94440476Y-68559580D02*
X94488095Y-68464342D01*
X94488095Y-68464342D02*
X94488095Y-68369104D01*
X94488095Y-68369104D02*
X94440476Y-68273866D01*
X94440476Y-68273866D02*
X94392857Y-68226247D01*
X94392857Y-68226247D02*
X94297619Y-68178628D01*
X94297619Y-68178628D02*
X94107143Y-68131009D01*
X94107143Y-68131009D02*
X94011905Y-68083390D01*
X94011905Y-68083390D02*
X93964286Y-68035771D01*
X93964286Y-68035771D02*
X93916667Y-67940533D01*
X93916667Y-67940533D02*
X93916667Y-67845295D01*
X93916667Y-67845295D02*
X93964286Y-67750057D01*
X93964286Y-67750057D02*
X94011905Y-67702438D01*
X94011905Y-67702438D02*
X94107143Y-67654819D01*
X94107143Y-67654819D02*
X94345238Y-67654819D01*
X94345238Y-67654819D02*
X94488095Y-67702438D01*
X94821429Y-67654819D02*
X95059524Y-68654819D01*
X95059524Y-68654819D02*
X95250000Y-67940533D01*
X95250000Y-67940533D02*
X95440476Y-68654819D01*
X95440476Y-68654819D02*
X95678572Y-67654819D01*
X95964286Y-67654819D02*
X96630952Y-67654819D01*
X96630952Y-67654819D02*
X96202381Y-68654819D01*
X74866667Y-68607200D02*
X75009524Y-68654819D01*
X75009524Y-68654819D02*
X75247619Y-68654819D01*
X75247619Y-68654819D02*
X75342857Y-68607200D01*
X75342857Y-68607200D02*
X75390476Y-68559580D01*
X75390476Y-68559580D02*
X75438095Y-68464342D01*
X75438095Y-68464342D02*
X75438095Y-68369104D01*
X75438095Y-68369104D02*
X75390476Y-68273866D01*
X75390476Y-68273866D02*
X75342857Y-68226247D01*
X75342857Y-68226247D02*
X75247619Y-68178628D01*
X75247619Y-68178628D02*
X75057143Y-68131009D01*
X75057143Y-68131009D02*
X74961905Y-68083390D01*
X74961905Y-68083390D02*
X74914286Y-68035771D01*
X74914286Y-68035771D02*
X74866667Y-67940533D01*
X74866667Y-67940533D02*
X74866667Y-67845295D01*
X74866667Y-67845295D02*
X74914286Y-67750057D01*
X74914286Y-67750057D02*
X74961905Y-67702438D01*
X74961905Y-67702438D02*
X75057143Y-67654819D01*
X75057143Y-67654819D02*
X75295238Y-67654819D01*
X75295238Y-67654819D02*
X75438095Y-67702438D01*
X75771429Y-67654819D02*
X76009524Y-68654819D01*
X76009524Y-68654819D02*
X76200000Y-67940533D01*
X76200000Y-67940533D02*
X76390476Y-68654819D01*
X76390476Y-68654819D02*
X76628572Y-67654819D01*
X77438095Y-67654819D02*
X77247619Y-67654819D01*
X77247619Y-67654819D02*
X77152381Y-67702438D01*
X77152381Y-67702438D02*
X77104762Y-67750057D01*
X77104762Y-67750057D02*
X77009524Y-67892914D01*
X77009524Y-67892914D02*
X76961905Y-68083390D01*
X76961905Y-68083390D02*
X76961905Y-68464342D01*
X76961905Y-68464342D02*
X77009524Y-68559580D01*
X77009524Y-68559580D02*
X77057143Y-68607200D01*
X77057143Y-68607200D02*
X77152381Y-68654819D01*
X77152381Y-68654819D02*
X77342857Y-68654819D01*
X77342857Y-68654819D02*
X77438095Y-68607200D01*
X77438095Y-68607200D02*
X77485714Y-68559580D01*
X77485714Y-68559580D02*
X77533333Y-68464342D01*
X77533333Y-68464342D02*
X77533333Y-68226247D01*
X77533333Y-68226247D02*
X77485714Y-68131009D01*
X77485714Y-68131009D02*
X77438095Y-68083390D01*
X77438095Y-68083390D02*
X77342857Y-68035771D01*
X77342857Y-68035771D02*
X77152381Y-68035771D01*
X77152381Y-68035771D02*
X77057143Y-68083390D01*
X77057143Y-68083390D02*
X77009524Y-68131009D01*
X77009524Y-68131009D02*
X76961905Y-68226247D01*
X55816667Y-68607200D02*
X55959524Y-68654819D01*
X55959524Y-68654819D02*
X56197619Y-68654819D01*
X56197619Y-68654819D02*
X56292857Y-68607200D01*
X56292857Y-68607200D02*
X56340476Y-68559580D01*
X56340476Y-68559580D02*
X56388095Y-68464342D01*
X56388095Y-68464342D02*
X56388095Y-68369104D01*
X56388095Y-68369104D02*
X56340476Y-68273866D01*
X56340476Y-68273866D02*
X56292857Y-68226247D01*
X56292857Y-68226247D02*
X56197619Y-68178628D01*
X56197619Y-68178628D02*
X56007143Y-68131009D01*
X56007143Y-68131009D02*
X55911905Y-68083390D01*
X55911905Y-68083390D02*
X55864286Y-68035771D01*
X55864286Y-68035771D02*
X55816667Y-67940533D01*
X55816667Y-67940533D02*
X55816667Y-67845295D01*
X55816667Y-67845295D02*
X55864286Y-67750057D01*
X55864286Y-67750057D02*
X55911905Y-67702438D01*
X55911905Y-67702438D02*
X56007143Y-67654819D01*
X56007143Y-67654819D02*
X56245238Y-67654819D01*
X56245238Y-67654819D02*
X56388095Y-67702438D01*
X56721429Y-67654819D02*
X56959524Y-68654819D01*
X56959524Y-68654819D02*
X57150000Y-67940533D01*
X57150000Y-67940533D02*
X57340476Y-68654819D01*
X57340476Y-68654819D02*
X57578572Y-67654819D01*
X58435714Y-67654819D02*
X57959524Y-67654819D01*
X57959524Y-67654819D02*
X57911905Y-68131009D01*
X57911905Y-68131009D02*
X57959524Y-68083390D01*
X57959524Y-68083390D02*
X58054762Y-68035771D01*
X58054762Y-68035771D02*
X58292857Y-68035771D01*
X58292857Y-68035771D02*
X58388095Y-68083390D01*
X58388095Y-68083390D02*
X58435714Y-68131009D01*
X58435714Y-68131009D02*
X58483333Y-68226247D01*
X58483333Y-68226247D02*
X58483333Y-68464342D01*
X58483333Y-68464342D02*
X58435714Y-68559580D01*
X58435714Y-68559580D02*
X58388095Y-68607200D01*
X58388095Y-68607200D02*
X58292857Y-68654819D01*
X58292857Y-68654819D02*
X58054762Y-68654819D01*
X58054762Y-68654819D02*
X57959524Y-68607200D01*
X57959524Y-68607200D02*
X57911905Y-68559580D01*
X74866667Y-49557200D02*
X75009524Y-49604819D01*
X75009524Y-49604819D02*
X75247619Y-49604819D01*
X75247619Y-49604819D02*
X75342857Y-49557200D01*
X75342857Y-49557200D02*
X75390476Y-49509580D01*
X75390476Y-49509580D02*
X75438095Y-49414342D01*
X75438095Y-49414342D02*
X75438095Y-49319104D01*
X75438095Y-49319104D02*
X75390476Y-49223866D01*
X75390476Y-49223866D02*
X75342857Y-49176247D01*
X75342857Y-49176247D02*
X75247619Y-49128628D01*
X75247619Y-49128628D02*
X75057143Y-49081009D01*
X75057143Y-49081009D02*
X74961905Y-49033390D01*
X74961905Y-49033390D02*
X74914286Y-48985771D01*
X74914286Y-48985771D02*
X74866667Y-48890533D01*
X74866667Y-48890533D02*
X74866667Y-48795295D01*
X74866667Y-48795295D02*
X74914286Y-48700057D01*
X74914286Y-48700057D02*
X74961905Y-48652438D01*
X74961905Y-48652438D02*
X75057143Y-48604819D01*
X75057143Y-48604819D02*
X75295238Y-48604819D01*
X75295238Y-48604819D02*
X75438095Y-48652438D01*
X75771429Y-48604819D02*
X76009524Y-49604819D01*
X76009524Y-49604819D02*
X76200000Y-48890533D01*
X76200000Y-48890533D02*
X76390476Y-49604819D01*
X76390476Y-49604819D02*
X76628572Y-48604819D01*
X76961905Y-48700057D02*
X77009524Y-48652438D01*
X77009524Y-48652438D02*
X77104762Y-48604819D01*
X77104762Y-48604819D02*
X77342857Y-48604819D01*
X77342857Y-48604819D02*
X77438095Y-48652438D01*
X77438095Y-48652438D02*
X77485714Y-48700057D01*
X77485714Y-48700057D02*
X77533333Y-48795295D01*
X77533333Y-48795295D02*
X77533333Y-48890533D01*
X77533333Y-48890533D02*
X77485714Y-49033390D01*
X77485714Y-49033390D02*
X76914286Y-49604819D01*
X76914286Y-49604819D02*
X77533333Y-49604819D01*
X55816667Y-49557200D02*
X55959524Y-49604819D01*
X55959524Y-49604819D02*
X56197619Y-49604819D01*
X56197619Y-49604819D02*
X56292857Y-49557200D01*
X56292857Y-49557200D02*
X56340476Y-49509580D01*
X56340476Y-49509580D02*
X56388095Y-49414342D01*
X56388095Y-49414342D02*
X56388095Y-49319104D01*
X56388095Y-49319104D02*
X56340476Y-49223866D01*
X56340476Y-49223866D02*
X56292857Y-49176247D01*
X56292857Y-49176247D02*
X56197619Y-49128628D01*
X56197619Y-49128628D02*
X56007143Y-49081009D01*
X56007143Y-49081009D02*
X55911905Y-49033390D01*
X55911905Y-49033390D02*
X55864286Y-48985771D01*
X55864286Y-48985771D02*
X55816667Y-48890533D01*
X55816667Y-48890533D02*
X55816667Y-48795295D01*
X55816667Y-48795295D02*
X55864286Y-48700057D01*
X55864286Y-48700057D02*
X55911905Y-48652438D01*
X55911905Y-48652438D02*
X56007143Y-48604819D01*
X56007143Y-48604819D02*
X56245238Y-48604819D01*
X56245238Y-48604819D02*
X56388095Y-48652438D01*
X56721429Y-48604819D02*
X56959524Y-49604819D01*
X56959524Y-49604819D02*
X57150000Y-48890533D01*
X57150000Y-48890533D02*
X57340476Y-49604819D01*
X57340476Y-49604819D02*
X57578572Y-48604819D01*
X58483333Y-49604819D02*
X57911905Y-49604819D01*
X58197619Y-49604819D02*
X58197619Y-48604819D01*
X58197619Y-48604819D02*
X58102381Y-48747676D01*
X58102381Y-48747676D02*
X58007143Y-48842914D01*
X58007143Y-48842914D02*
X57911905Y-48890533D01*
X145136095Y-112542819D02*
X145136095Y-113352342D01*
X145136095Y-113352342D02*
X145183714Y-113447580D01*
X145183714Y-113447580D02*
X145231333Y-113495200D01*
X145231333Y-113495200D02*
X145326571Y-113542819D01*
X145326571Y-113542819D02*
X145517047Y-113542819D01*
X145517047Y-113542819D02*
X145612285Y-113495200D01*
X145612285Y-113495200D02*
X145659904Y-113447580D01*
X145659904Y-113447580D02*
X145707523Y-113352342D01*
X145707523Y-113352342D02*
X145707523Y-112542819D01*
X146136095Y-112638057D02*
X146183714Y-112590438D01*
X146183714Y-112590438D02*
X146278952Y-112542819D01*
X146278952Y-112542819D02*
X146517047Y-112542819D01*
X146517047Y-112542819D02*
X146612285Y-112590438D01*
X146612285Y-112590438D02*
X146659904Y-112638057D01*
X146659904Y-112638057D02*
X146707523Y-112733295D01*
X146707523Y-112733295D02*
X146707523Y-112828533D01*
X146707523Y-112828533D02*
X146659904Y-112971390D01*
X146659904Y-112971390D02*
X146088476Y-113542819D01*
X146088476Y-113542819D02*
X146707523Y-113542819D01*
X176241819Y-110131333D02*
X176956104Y-110131333D01*
X176956104Y-110131333D02*
X177098961Y-110178952D01*
X177098961Y-110178952D02*
X177194200Y-110274190D01*
X177194200Y-110274190D02*
X177241819Y-110417047D01*
X177241819Y-110417047D02*
X177241819Y-110512285D01*
X176337057Y-109702761D02*
X176289438Y-109655142D01*
X176289438Y-109655142D02*
X176241819Y-109559904D01*
X176241819Y-109559904D02*
X176241819Y-109321809D01*
X176241819Y-109321809D02*
X176289438Y-109226571D01*
X176289438Y-109226571D02*
X176337057Y-109178952D01*
X176337057Y-109178952D02*
X176432295Y-109131333D01*
X176432295Y-109131333D02*
X176527533Y-109131333D01*
X176527533Y-109131333D02*
X176670390Y-109178952D01*
X176670390Y-109178952D02*
X177241819Y-109750380D01*
X177241819Y-109750380D02*
X177241819Y-109131333D01*
D13*
X145228060Y-90575532D02*
X145205549Y-90598044D01*
X145205549Y-90598044D02*
X145138013Y-90620555D01*
X145138013Y-90620555D02*
X145092990Y-90620555D01*
X145092990Y-90620555D02*
X145025455Y-90598044D01*
X145025455Y-90598044D02*
X144980431Y-90553020D01*
X144980431Y-90553020D02*
X144957919Y-90507996D01*
X144957919Y-90507996D02*
X144935408Y-90417949D01*
X144935408Y-90417949D02*
X144935408Y-90350414D01*
X144935408Y-90350414D02*
X144957919Y-90260367D01*
X144957919Y-90260367D02*
X144980431Y-90215344D01*
X144980431Y-90215344D02*
X145025455Y-90170320D01*
X145025455Y-90170320D02*
X145092990Y-90147808D01*
X145092990Y-90147808D02*
X145138013Y-90147808D01*
X145138013Y-90147808D02*
X145205549Y-90170320D01*
X145205549Y-90170320D02*
X145228060Y-90192832D01*
X145408155Y-90192832D02*
X145430666Y-90170320D01*
X145430666Y-90170320D02*
X145475690Y-90147808D01*
X145475690Y-90147808D02*
X145588249Y-90147808D01*
X145588249Y-90147808D02*
X145633272Y-90170320D01*
X145633272Y-90170320D02*
X145655784Y-90192832D01*
X145655784Y-90192832D02*
X145678296Y-90237855D01*
X145678296Y-90237855D02*
X145678296Y-90282879D01*
X145678296Y-90282879D02*
X145655784Y-90350414D01*
X145655784Y-90350414D02*
X145385643Y-90620555D01*
X145385643Y-90620555D02*
X145678296Y-90620555D01*
D12*
X170113819Y-92963904D02*
X170923342Y-92963904D01*
X170923342Y-92963904D02*
X171018580Y-92916285D01*
X171018580Y-92916285D02*
X171066200Y-92868666D01*
X171066200Y-92868666D02*
X171113819Y-92773428D01*
X171113819Y-92773428D02*
X171113819Y-92582952D01*
X171113819Y-92582952D02*
X171066200Y-92487714D01*
X171066200Y-92487714D02*
X171018580Y-92440095D01*
X171018580Y-92440095D02*
X170923342Y-92392476D01*
X170923342Y-92392476D02*
X170113819Y-92392476D01*
X170113819Y-92011523D02*
X170113819Y-91392476D01*
X170113819Y-91392476D02*
X170494771Y-91725809D01*
X170494771Y-91725809D02*
X170494771Y-91582952D01*
X170494771Y-91582952D02*
X170542390Y-91487714D01*
X170542390Y-91487714D02*
X170590009Y-91440095D01*
X170590009Y-91440095D02*
X170685247Y-91392476D01*
X170685247Y-91392476D02*
X170923342Y-91392476D01*
X170923342Y-91392476D02*
X171018580Y-91440095D01*
X171018580Y-91440095D02*
X171066200Y-91487714D01*
X171066200Y-91487714D02*
X171113819Y-91582952D01*
X171113819Y-91582952D02*
X171113819Y-91868666D01*
X171113819Y-91868666D02*
X171066200Y-91963904D01*
X171066200Y-91963904D02*
X171018580Y-92011523D01*
X154511095Y-84518819D02*
X154511095Y-85328342D01*
X154511095Y-85328342D02*
X154558714Y-85423580D01*
X154558714Y-85423580D02*
X154606333Y-85471200D01*
X154606333Y-85471200D02*
X154701571Y-85518819D01*
X154701571Y-85518819D02*
X154892047Y-85518819D01*
X154892047Y-85518819D02*
X154987285Y-85471200D01*
X154987285Y-85471200D02*
X155034904Y-85423580D01*
X155034904Y-85423580D02*
X155082523Y-85328342D01*
X155082523Y-85328342D02*
X155082523Y-84518819D01*
X156082523Y-85518819D02*
X155511095Y-85518819D01*
X155796809Y-85518819D02*
X155796809Y-84518819D01*
X155796809Y-84518819D02*
X155701571Y-84661676D01*
X155701571Y-84661676D02*
X155606333Y-84756914D01*
X155606333Y-84756914D02*
X155511095Y-84804533D01*
D13*
X145228060Y-88720732D02*
X145205549Y-88743244D01*
X145205549Y-88743244D02*
X145138013Y-88765755D01*
X145138013Y-88765755D02*
X145092990Y-88765755D01*
X145092990Y-88765755D02*
X145025455Y-88743244D01*
X145025455Y-88743244D02*
X144980431Y-88698220D01*
X144980431Y-88698220D02*
X144957919Y-88653196D01*
X144957919Y-88653196D02*
X144935408Y-88563149D01*
X144935408Y-88563149D02*
X144935408Y-88495614D01*
X144935408Y-88495614D02*
X144957919Y-88405567D01*
X144957919Y-88405567D02*
X144980431Y-88360544D01*
X144980431Y-88360544D02*
X145025455Y-88315520D01*
X145025455Y-88315520D02*
X145092990Y-88293008D01*
X145092990Y-88293008D02*
X145138013Y-88293008D01*
X145138013Y-88293008D02*
X145205549Y-88315520D01*
X145205549Y-88315520D02*
X145228060Y-88338032D01*
X145678296Y-88765755D02*
X145408155Y-88765755D01*
X145543225Y-88765755D02*
X145543225Y-88293008D01*
X145543225Y-88293008D02*
X145498202Y-88360544D01*
X145498202Y-88360544D02*
X145453178Y-88405567D01*
X145453178Y-88405567D02*
X145408155Y-88428079D01*
D14*
%TO.C,Y1*%
X146919000Y-100897250D02*
X146919000Y-100447250D01*
X144419000Y-100897250D02*
X144419000Y-100447250D01*
D15*
X147869000Y-101772250D02*
G75*
G02*
X147669000Y-101772250I-100000J0D01*
G01*
X147669000Y-101772250D02*
G75*
G02*
X147869000Y-101772250I100000J0D01*
G01*
D11*
%TO.C,R4*%
X174997064Y-105262000D02*
X173542936Y-105262000D01*
X174997064Y-107082000D02*
X173542936Y-107082000D01*
%TO.C,R5*%
X179866936Y-117496000D02*
X181321064Y-117496000D01*
X179866936Y-115676000D02*
X181321064Y-115676000D01*
%TO.C,R2*%
X153691000Y-89855064D02*
X153691000Y-88400936D01*
X151871000Y-89855064D02*
X151871000Y-88400936D01*
%TO.C,R1*%
X155977000Y-89855064D02*
X155977000Y-88400936D01*
X154157000Y-89855064D02*
X154157000Y-88400936D01*
%TO.C,R3*%
X161535064Y-113390000D02*
X160080936Y-113390000D01*
X161535064Y-115210000D02*
X160080936Y-115210000D01*
%TO.C,SW11*%
X102350000Y-88150000D02*
X88150000Y-88150000D01*
X102350000Y-102350000D02*
X102350000Y-88150000D01*
X88150000Y-102350000D02*
X102350000Y-102350000D01*
X88150000Y-88150000D02*
X88150000Y-102350000D01*
%TO.C,J1*%
X138530000Y-120902000D02*
X138530000Y-114782000D01*
X138530000Y-118342000D02*
X134170000Y-118342000D01*
X138530000Y-114782000D02*
X130710000Y-114782000D01*
X136270000Y-120142000D02*
X136270000Y-119142000D01*
X136270000Y-119642000D02*
X138530000Y-119642000D01*
X136270000Y-119142000D02*
X138530000Y-119142000D01*
X136270000Y-119142000D02*
X134670000Y-119142000D01*
X136270000Y-116542000D02*
X134670000Y-116542000D01*
X136270000Y-115542000D02*
X136270000Y-116542000D01*
X134670000Y-120142000D02*
X136270000Y-120142000D01*
X134670000Y-119142000D02*
X134670000Y-120142000D01*
X134670000Y-116542000D02*
X134670000Y-115542000D01*
X134670000Y-115542000D02*
X136270000Y-115542000D01*
X134170000Y-118342000D02*
X134170000Y-117342000D01*
X134170000Y-117342000D02*
X138530000Y-117342000D01*
X132310000Y-120902000D02*
X132310000Y-119982000D01*
X132310000Y-119982000D02*
X130710000Y-119982000D01*
X132310000Y-119702000D02*
X132310000Y-119982000D01*
X132310000Y-119702000D02*
X131095000Y-119702000D01*
X132310000Y-115702000D02*
X132310000Y-115982000D01*
X132310000Y-114782000D02*
X132310000Y-115702000D01*
X130710000Y-120902000D02*
X138530000Y-120902000D01*
X130710000Y-119982000D02*
X130710000Y-120902000D01*
X130710000Y-115702000D02*
X132310000Y-115702000D01*
X130710000Y-114782000D02*
X130710000Y-115702000D01*
%TO.C,SW3*%
X102350000Y-50050000D02*
X88150000Y-50050000D01*
X102350000Y-64250000D02*
X102350000Y-50050000D01*
X88150000Y-64250000D02*
X102350000Y-64250000D01*
X88150000Y-50050000D02*
X88150000Y-64250000D01*
%TO.C,SW15*%
X88150000Y-107200000D02*
X88150000Y-121400000D01*
X88150000Y-121400000D02*
X102350000Y-121400000D01*
X102350000Y-121400000D02*
X102350000Y-107200000D01*
X102350000Y-107200000D02*
X88150000Y-107200000D01*
%TO.C,SW14*%
X69100000Y-107200000D02*
X69100000Y-121400000D01*
X69100000Y-121400000D02*
X83300000Y-121400000D01*
X83300000Y-121400000D02*
X83300000Y-107200000D01*
X83300000Y-107200000D02*
X69100000Y-107200000D01*
%TO.C,SW13*%
X50050000Y-107200000D02*
X50050000Y-121400000D01*
X50050000Y-121400000D02*
X64250000Y-121400000D01*
X64250000Y-121400000D02*
X64250000Y-107200000D01*
X64250000Y-107200000D02*
X50050000Y-107200000D01*
%TO.C,SW10*%
X69100000Y-88150000D02*
X69100000Y-102350000D01*
X69100000Y-102350000D02*
X83300000Y-102350000D01*
X83300000Y-102350000D02*
X83300000Y-88150000D01*
X83300000Y-88150000D02*
X69100000Y-88150000D01*
%TO.C,SW9*%
X50050000Y-88150000D02*
X50050000Y-102350000D01*
X50050000Y-102350000D02*
X64250000Y-102350000D01*
X64250000Y-102350000D02*
X64250000Y-88150000D01*
X64250000Y-88150000D02*
X50050000Y-88150000D01*
%TO.C,SW7*%
X88150000Y-69100000D02*
X88150000Y-83300000D01*
X88150000Y-83300000D02*
X102350000Y-83300000D01*
X102350000Y-83300000D02*
X102350000Y-69100000D01*
X102350000Y-69100000D02*
X88150000Y-69100000D01*
%TO.C,SW6*%
X69100000Y-69100000D02*
X69100000Y-83300000D01*
X69100000Y-83300000D02*
X83300000Y-83300000D01*
X83300000Y-83300000D02*
X83300000Y-69100000D01*
X83300000Y-69100000D02*
X69100000Y-69100000D01*
%TO.C,SW5*%
X50050000Y-69100000D02*
X50050000Y-83300000D01*
X50050000Y-83300000D02*
X64250000Y-83300000D01*
X64250000Y-83300000D02*
X64250000Y-69100000D01*
X64250000Y-69100000D02*
X50050000Y-69100000D01*
%TO.C,SW2*%
X69100000Y-50050000D02*
X69100000Y-64250000D01*
X69100000Y-64250000D02*
X83300000Y-64250000D01*
X83300000Y-64250000D02*
X83300000Y-50050000D01*
X83300000Y-50050000D02*
X69100000Y-50050000D01*
%TO.C,SW1*%
X50050000Y-50050000D02*
X50050000Y-64250000D01*
X50050000Y-64250000D02*
X64250000Y-64250000D01*
X64250000Y-64250000D02*
X64250000Y-50050000D01*
X64250000Y-50050000D02*
X50050000Y-50050000D01*
%TO.C,U2*%
X144048000Y-114178000D02*
X147808000Y-114178000D01*
X144048000Y-120998000D02*
X147808000Y-120998000D01*
X147808000Y-114178000D02*
X147808000Y-115438000D01*
X147808000Y-120998000D02*
X147808000Y-119738000D01*
X142768000Y-114278000D02*
X142528000Y-113948000D01*
X143008000Y-113948000D01*
X142768000Y-114278000D01*
G36*
X142768000Y-114278000D02*
G01*
X142528000Y-113948000D01*
X143008000Y-113948000D01*
X142768000Y-114278000D01*
G37*
%TO.C,J2*%
X180532000Y-105098000D02*
X182532000Y-105098000D01*
X180532000Y-114498000D02*
X182532000Y-114498000D01*
X184432000Y-105098000D02*
X186332000Y-105098000D01*
X184432000Y-114498000D02*
X186332000Y-114498000D01*
X186332000Y-114498000D02*
X186332000Y-105098000D01*
%TO.C,U3*%
X164699000Y-90142000D02*
X164794000Y-90142000D01*
X164699000Y-94262000D02*
X164699000Y-90142000D01*
X164794000Y-94262000D02*
X164699000Y-94262000D01*
X169724000Y-90142000D02*
X169819000Y-90142000D01*
X169819000Y-90142000D02*
X169819000Y-94262000D01*
X169819000Y-94262000D02*
X169724000Y-94262000D01*
X170059000Y-89842000D02*
X169729000Y-89602000D01*
X170059000Y-89362000D01*
X170059000Y-89842000D01*
G36*
X170059000Y-89842000D02*
G01*
X169729000Y-89602000D01*
X170059000Y-89362000D01*
X170059000Y-89842000D01*
G37*
D14*
%TO.C,U1*%
X149900000Y-94274000D02*
X149900000Y-94569000D01*
X149900000Y-98979000D02*
X149900000Y-99274000D01*
X149900000Y-99274000D02*
X150195000Y-99274000D01*
X150195000Y-94274000D02*
X149900000Y-94274000D01*
X154605000Y-99274000D02*
X154900000Y-99274000D01*
X154900000Y-94274000D02*
X154605000Y-94274000D01*
X154900000Y-94569000D02*
X154900000Y-94274000D01*
X154900000Y-99274000D02*
X154900000Y-98979000D01*
D15*
X149100000Y-95024000D02*
G75*
G02*
X148900000Y-95024000I-100000J0D01*
G01*
X148900000Y-95024000D02*
G75*
G02*
X149100000Y-95024000I100000J0D01*
G01*
%TD*%
M02*
