%TF.GenerationSoftware,KiCad,Pcbnew,9.0.6*%
%TF.CreationDate,2025-11-25T22:15:10-08:00*%
%TF.ProjectId,idkpad,69646b70-6164-42e6-9b69-6361645f7063,rev?*%
%TF.SameCoordinates,Original*%
%TF.FileFunction,Copper,L1,Top*%
%TF.FilePolarity,Positive*%
%FSLAX46Y46*%
G04 Gerber Fmt 4.6, Leading zero omitted, Abs format (unit mm)*
G04 Created by KiCad (PCBNEW 9.0.6) date 2025-11-25 22:15:10*
%MOMM*%
%LPD*%
G01*
G04 APERTURE LIST*
G04 Aperture macros list*
%AMRoundRect*
0 Rectangle with rounded corners*
0 $1 Rounding radius*
0 $2 $3 $4 $5 $6 $7 $8 $9 X,Y pos of 4 corners*
0 Add a 4 corners polygon primitive as box body*
4,1,4,$2,$3,$4,$5,$6,$7,$8,$9,$2,$3,0*
0 Add four circle primitives for the rounded corners*
1,1,$1+$1,$2,$3*
1,1,$1+$1,$4,$5*
1,1,$1+$1,$6,$7*
1,1,$1+$1,$8,$9*
0 Add four rect primitives between the rounded corners*
20,1,$1+$1,$2,$3,$4,$5,0*
20,1,$1+$1,$4,$5,$6,$7,0*
20,1,$1+$1,$6,$7,$8,$9,0*
20,1,$1+$1,$8,$9,$2,$3,0*%
G04 Aperture macros list end*
%TA.AperFunction,SMDPad,CuDef*%
%ADD10R,1.110000X1.210000*%
%TD*%
%TA.AperFunction,SMDPad,CuDef*%
%ADD11RoundRect,0.250000X0.400000X0.625000X-0.400000X0.625000X-0.400000X-0.625000X0.400000X-0.625000X0*%
%TD*%
%TA.AperFunction,SMDPad,CuDef*%
%ADD12RoundRect,0.250000X-0.400000X-0.625000X0.400000X-0.625000X0.400000X0.625000X-0.400000X0.625000X0*%
%TD*%
%TA.AperFunction,SMDPad,CuDef*%
%ADD13RoundRect,0.250000X0.625000X-0.400000X0.625000X0.400000X-0.625000X0.400000X-0.625000X-0.400000X0*%
%TD*%
%TA.AperFunction,ComponentPad*%
%ADD14R,2.000000X2.000000*%
%TD*%
%TA.AperFunction,ComponentPad*%
%ADD15C,2.000000*%
%TD*%
%TA.AperFunction,ComponentPad*%
%ADD16R,3.000000X2.500000*%
%TD*%
%TA.AperFunction,ComponentPad*%
%ADD17C,3.600000*%
%TD*%
%TA.AperFunction,ComponentPad*%
%ADD18O,1.750000X1.200000*%
%TD*%
%TA.AperFunction,ComponentPad*%
%ADD19RoundRect,0.250000X0.625000X-0.350000X0.625000X0.350000X-0.625000X0.350000X-0.625000X-0.350000X0*%
%TD*%
%TA.AperFunction,SMDPad,CuDef*%
%ADD20RoundRect,0.375000X-0.625000X-0.375000X0.625000X-0.375000X0.625000X0.375000X-0.625000X0.375000X0*%
%TD*%
%TA.AperFunction,SMDPad,CuDef*%
%ADD21RoundRect,0.500000X-0.500000X-1.400000X0.500000X-1.400000X0.500000X1.400000X-0.500000X1.400000X0*%
%TD*%
%TA.AperFunction,SMDPad,CuDef*%
%ADD22R,1.450000X0.600000*%
%TD*%
%TA.AperFunction,SMDPad,CuDef*%
%ADD23R,1.450000X0.300000*%
%TD*%
%TA.AperFunction,HeatsinkPad*%
%ADD24O,2.100000X1.000000*%
%TD*%
%TA.AperFunction,HeatsinkPad*%
%ADD25O,1.600000X1.000000*%
%TD*%
%TA.AperFunction,SMDPad,CuDef*%
%ADD26R,1.100000X1.000000*%
%TD*%
%TA.AperFunction,SMDPad,CuDef*%
%ADD27RoundRect,0.150000X-0.150000X0.825000X-0.150000X-0.825000X0.150000X-0.825000X0.150000X0.825000X0*%
%TD*%
%TA.AperFunction,SMDPad,CuDef*%
%ADD28RoundRect,0.033750X-0.371250X-0.101250X0.371250X-0.101250X0.371250X0.101250X-0.371250X0.101250X0*%
%TD*%
%TA.AperFunction,SMDPad,CuDef*%
%ADD29RoundRect,0.033750X-0.101250X-0.371250X0.101250X-0.371250X0.101250X0.371250X-0.101250X0.371250X0*%
%TD*%
%TA.AperFunction,SMDPad,CuDef*%
%ADD30R,3.700000X3.700000*%
%TD*%
%TA.AperFunction,ComponentPad*%
%ADD31C,1.752600*%
%TD*%
%TA.AperFunction,ViaPad*%
%ADD32C,0.300000*%
%TD*%
%TA.AperFunction,ViaPad*%
%ADD33C,0.600000*%
%TD*%
%TA.AperFunction,Conductor*%
%ADD34C,0.200000*%
%TD*%
G04 APERTURE END LIST*
D10*
%TO.P,Y1,1,1*%
%TO.N,Net-(U1-XTAL_P)*%
X146519000Y-101822250D03*
%TO.P,Y1,2,2*%
%TO.N,unconnected-(Y1-Pad2)*%
X146519000Y-99522250D03*
%TO.P,Y1,3,3*%
%TO.N,Net-(U1-XTAL_N)*%
X144819000Y-99522250D03*
%TO.P,Y1,4,4*%
%TO.N,GND*%
X144819000Y-101822250D03*
%TD*%
D11*
%TO.P,R4,1*%
%TO.N,Net-(J2-CC1)*%
X175820000Y-106172000D03*
%TO.P,R4,2*%
%TO.N,GND*%
X172720000Y-106172000D03*
%TD*%
D12*
%TO.P,R5,2*%
%TO.N,GND*%
X182144000Y-116586000D03*
%TO.P,R5,1*%
%TO.N,Net-(J2-CC2)*%
X179044000Y-116586000D03*
%TD*%
D13*
%TO.P,R2,2*%
%TO.N,D+*%
X152781000Y-87578000D03*
%TO.P,R2,1*%
%TO.N,Net-(U1-GPIO19{slash}USB_D+)*%
X152781000Y-90678000D03*
%TD*%
%TO.P,R1,2*%
%TO.N,D-*%
X155067000Y-87578000D03*
%TO.P,R1,1*%
%TO.N,Net-(U1-GPIO18{slash}USB_D-)*%
X155067000Y-90678000D03*
%TD*%
D11*
%TO.P,R3,2*%
%TO.N,Net-(U1-CHIP_EN)*%
X159258000Y-114300000D03*
%TO.P,R3,1*%
%TO.N,VBUS*%
X162358000Y-114300000D03*
%TD*%
D14*
%TO.P,SW19,A,A*%
%TO.N,RE_A2*%
X123825000Y-59531250D03*
D15*
%TO.P,SW19,B,B*%
%TO.N,RE_B2*%
X123825000Y-54531250D03*
%TO.P,SW19,C,C*%
%TO.N,GND*%
X123825000Y-57031250D03*
D16*
%TO.P,SW19,MP*%
%TO.N,N/C*%
X131325000Y-51431250D03*
X131325000Y-62631250D03*
D15*
%TO.P,SW19,S1,S1*%
%TO.N,C5*%
X138325000Y-59531250D03*
%TO.P,SW19,S2,S2*%
%TO.N,Net-(D18-A)*%
X138325000Y-54531250D03*
%TD*%
D17*
%TO.P,SW11,2*%
%TO.N,C3*%
X97790000Y-90170000D03*
%TO.P,SW11,1*%
%TO.N,Net-(D11-A)*%
X91440000Y-92710000D03*
%TD*%
D18*
%TO.P,J1,2,Pin_2*%
%TO.N,GND*%
X132170000Y-116842000D03*
D19*
%TO.P,J1,1,Pin_1*%
%TO.N,Net-(J1-Pin_1)*%
X132170000Y-118842000D03*
%TD*%
D17*
%TO.P,SW3,2*%
%TO.N,Net-(U1-CHIP_EN)*%
X97790000Y-52070000D03*
%TO.P,SW3,1*%
%TO.N,GND*%
X91440000Y-54610000D03*
%TD*%
%TO.P,SW15,1*%
%TO.N,Net-(D15-A)*%
X91440000Y-111760000D03*
%TO.P,SW15,2*%
%TO.N,C3*%
X97790000Y-109220000D03*
%TD*%
%TO.P,SW14,1*%
%TO.N,Net-(D14-A)*%
X72390000Y-111760000D03*
%TO.P,SW14,2*%
%TO.N,C2*%
X78740000Y-109220000D03*
%TD*%
%TO.P,SW13,1*%
%TO.N,Net-(D13-A)*%
X53340000Y-111760000D03*
%TO.P,SW13,2*%
%TO.N,C1*%
X59690000Y-109220000D03*
%TD*%
%TO.P,SW10,1*%
%TO.N,Net-(D10-A)*%
X72390000Y-92710000D03*
%TO.P,SW10,2*%
%TO.N,C2*%
X78740000Y-90170000D03*
%TD*%
%TO.P,SW9,1*%
%TO.N,Net-(D9-A)*%
X53340000Y-92710000D03*
%TO.P,SW9,2*%
%TO.N,C1*%
X59690000Y-90170000D03*
%TD*%
%TO.P,SW7,1*%
%TO.N,Net-(D7-A)*%
X91440000Y-73660000D03*
%TO.P,SW7,2*%
%TO.N,C3*%
X97790000Y-71120000D03*
%TD*%
%TO.P,SW6,1*%
%TO.N,Net-(D6-A)*%
X72390000Y-73660000D03*
%TO.P,SW6,2*%
%TO.N,C2*%
X78740000Y-71120000D03*
%TD*%
%TO.P,SW5,1*%
%TO.N,Net-(D5-A)*%
X53340000Y-73660000D03*
%TO.P,SW5,2*%
%TO.N,C1*%
X59690000Y-71120000D03*
%TD*%
%TO.P,SW2,1*%
%TO.N,Net-(D2-A)*%
X72390000Y-54610000D03*
%TO.P,SW2,2*%
%TO.N,C2*%
X78740000Y-52070000D03*
%TD*%
%TO.P,SW1,1*%
%TO.N,Net-(D1-A)*%
X53340000Y-54610000D03*
%TO.P,SW1,2*%
%TO.N,C1*%
X59690000Y-52070000D03*
%TD*%
D20*
%TO.P,U2,1,GND*%
%TO.N,GND*%
X142748000Y-115288000D03*
%TO.P,U2,2,VO*%
%TO.N,Net-(U1-VDD3P3_CPU)*%
X142748000Y-117588000D03*
D21*
X149048000Y-117588000D03*
D20*
%TO.P,U2,3,VI*%
%TO.N,Net-(J1-Pin_1)*%
X142748000Y-119888000D03*
%TD*%
D22*
%TO.P,J2,A1,GND*%
%TO.N,GND*%
X178387000Y-113048000D03*
%TO.P,J2,A4,VBUS*%
%TO.N,VBUS*%
X178387000Y-112248000D03*
D23*
%TO.P,J2,A5,CC1*%
%TO.N,Net-(J2-CC1)*%
X178387000Y-111048000D03*
%TO.P,J2,A6,D+*%
%TO.N,Net-(J2-D+-PadA6)*%
X178387000Y-110048000D03*
%TO.P,J2,A7,D-*%
%TO.N,Net-(J2-D--PadA7)*%
X178387000Y-109548000D03*
%TO.P,J2,A8,SBU1*%
%TO.N,unconnected-(J2-SBU1-PadA8)*%
X178387000Y-108548000D03*
D22*
%TO.P,J2,A9,VBUS*%
%TO.N,VBUS*%
X178387000Y-107348000D03*
%TO.P,J2,A12,GND*%
%TO.N,GND*%
X178387000Y-106548000D03*
%TO.P,J2,B1,GND*%
X178387000Y-106548000D03*
%TO.P,J2,B4,VBUS*%
%TO.N,VBUS*%
X178387000Y-107348000D03*
D23*
%TO.P,J2,B5,CC2*%
%TO.N,Net-(J2-CC2)*%
X178387000Y-108048000D03*
%TO.P,J2,B6,D+*%
%TO.N,Net-(J2-D+-PadA6)*%
X178387000Y-109048000D03*
%TO.P,J2,B7,D-*%
%TO.N,Net-(J2-D--PadA7)*%
X178387000Y-110548000D03*
%TO.P,J2,B8,SBU2*%
%TO.N,unconnected-(J2-SBU2-PadB8)*%
X178387000Y-111548000D03*
D22*
%TO.P,J2,B9,VBUS*%
%TO.N,VBUS*%
X178387000Y-112248000D03*
%TO.P,J2,B12,GND*%
%TO.N,GND*%
X178387000Y-113048000D03*
D24*
%TO.P,J2,S1,SHIELD*%
%TO.N,unconnected-(J2-SHIELD-PadS1)_2*%
X179302000Y-114118000D03*
D25*
%TO.N,unconnected-(J2-SHIELD-PadS1)*%
X183482000Y-114118000D03*
D24*
%TO.N,unconnected-(J2-SHIELD-PadS1)_3*%
X179302000Y-105478000D03*
D25*
%TO.N,unconnected-(J2-SHIELD-PadS1)_1*%
X183482000Y-105478000D03*
%TD*%
D26*
%TO.P,C2,1*%
%TO.N,Net-(C1-Pad1)*%
X144692000Y-91643800D03*
%TO.P,C2,2*%
%TO.N,Net-(U1-XTAL_P)*%
X146392000Y-91643800D03*
%TD*%
D27*
%TO.P,U3,1,VBUS*%
%TO.N,VBUS*%
X169164000Y-89727000D03*
%TO.P,U3,2,I/O1*%
%TO.N,Net-(J2-D--PadA7)*%
X167894000Y-89727000D03*
%TO.P,U3,3,I/O2*%
%TO.N,Net-(J2-D+-PadA6)*%
X166624000Y-89727000D03*
%TO.P,U3,4,GND*%
%TO.N,GND*%
X165354000Y-89727000D03*
%TO.P,U3,5,GND*%
X165354000Y-94677000D03*
%TO.P,U3,6,I/O2*%
%TO.N,D+*%
X166624000Y-94677000D03*
%TO.P,U3,7,I/O1*%
%TO.N,D-*%
X167894000Y-94677000D03*
%TO.P,U3,8,VBUS*%
%TO.N,VBUS*%
X169164000Y-94677000D03*
%TD*%
D28*
%TO.P,U1,1,LNA_IN*%
%TO.N,unconnected-(U1-LNA_IN-Pad1)*%
X149955000Y-95024000D03*
%TO.P,U1,2,VDD3P3*%
%TO.N,Net-(U1-VDD3P3_CPU)*%
X149955000Y-95524000D03*
%TO.P,U1,3,VDD3P3*%
X149955000Y-96024000D03*
%TO.P,U1,4,GPIO0/XTAL_32K_P*%
%TO.N,C3*%
X149955000Y-96524000D03*
%TO.P,U1,5,GPIO1/XTAL_32K_N*%
X149955000Y-97024000D03*
%TO.P,U1,6,GPIO2*%
X149955000Y-97524000D03*
%TO.P,U1,7,CHIP_EN*%
%TO.N,Net-(U1-CHIP_EN)*%
X149955000Y-98024000D03*
%TO.P,U1,8,GPIO3*%
%TO.N,C3*%
X149955000Y-98524000D03*
D29*
%TO.P,U1,9,GPIO4/MTMS*%
%TO.N,C1*%
X150650000Y-99219000D03*
%TO.P,U1,10,GPIO5/MTDI*%
%TO.N,C2*%
X151150000Y-99219000D03*
%TO.P,U1,11,VDD3P3_RTC*%
%TO.N,Net-(U1-VDD3P3_CPU)*%
X151650000Y-99219000D03*
%TO.P,U1,12,GPIO6/MTCK*%
%TO.N,C3*%
X152150000Y-99219000D03*
%TO.P,U1,13,GPIO7/MTDO*%
%TO.N,C4*%
X152650000Y-99219000D03*
%TO.P,U1,14,GPIO8*%
%TO.N,C5*%
X153150000Y-99219000D03*
%TO.P,U1,15,GPIO9*%
%TO.N,unconnected-(U1-GPIO9-Pad15)*%
X153650000Y-99219000D03*
%TO.P,U1,16,GPIO10*%
%TO.N,CS*%
X154150000Y-99219000D03*
D28*
%TO.P,U1,17,VDD3P3_CPU*%
%TO.N,Net-(U1-VDD3P3_CPU)*%
X154845000Y-98524000D03*
%TO.P,U1,18,VDD_SPI*%
X154845000Y-98024000D03*
%TO.P,U1,19,GPIO12/SPIHD*%
%TO.N,VCC*%
X154845000Y-97524000D03*
%TO.P,U1,20,GPIO13/SPIWP*%
%TO.N,SCK*%
X154845000Y-97024000D03*
%TO.P,U1,21,GPIO14/SPICS0*%
%TO.N,MOSI*%
X154845000Y-96524000D03*
%TO.P,U1,22,GPIO15/SPICLK*%
%TO.N,RE_A1*%
X154845000Y-96024000D03*
%TO.P,U1,23,GPIO16/SPID*%
%TO.N,RE_B1*%
X154845000Y-95524000D03*
%TO.P,U1,24,GPIO17/SPIQ*%
%TO.N,RE_A2*%
X154845000Y-95024000D03*
D29*
%TO.P,U1,25,GPIO18/USB_D-*%
%TO.N,Net-(U1-GPIO18{slash}USB_D-)*%
X154150000Y-94329000D03*
%TO.P,U1,26,GPIO19/USB_D+*%
%TO.N,Net-(U1-GPIO19{slash}USB_D+)*%
X153650000Y-94329000D03*
%TO.P,U1,27,GPIO20/U0RXD*%
%TO.N,RE_B2*%
X153150000Y-94329000D03*
%TO.P,U1,28,GPIO21/U0TXD*%
%TO.N,unconnected-(U1-GPIO21{slash}U0TXD-Pad28)*%
X152650000Y-94329000D03*
%TO.P,U1,29,XTAL_N*%
%TO.N,Net-(U1-XTAL_N)*%
X152150000Y-94329000D03*
%TO.P,U1,30,XTAL_P*%
%TO.N,Net-(U1-XTAL_P)*%
X151650000Y-94329000D03*
%TO.P,U1,31,VDDA*%
%TO.N,Net-(U1-VDD3P3_CPU)*%
X151150000Y-94329000D03*
%TO.P,U1,32,VDDA*%
X150650000Y-94329000D03*
D30*
%TO.P,U1,33,GND*%
%TO.N,GND*%
X152400000Y-96774000D03*
%TD*%
D26*
%TO.P,C1,1*%
%TO.N,Net-(C1-Pad1)*%
X144692000Y-89789000D03*
%TO.P,C1,2*%
%TO.N,Net-(U1-XTAL_N)*%
X146392000Y-89789000D03*
%TD*%
D31*
%TO.P,Display1,1,MOSI*%
%TO.N,MOSI*%
X176053750Y-73501250D03*
%TO.P,Display1,2,SCK*%
%TO.N,SCK*%
X176053750Y-76041250D03*
%TO.P,Display1,3,VCC*%
%TO.N,VCC*%
X176053750Y-78581250D03*
%TO.P,Display1,4,GND*%
%TO.N,GND*%
X176053750Y-81121250D03*
%TO.P,Display1,5,CS*%
%TO.N,CS*%
X176053750Y-83661250D03*
%TD*%
D14*
%TO.P,SW17,A,A*%
%TO.N,RE_A1*%
X161925000Y-59531250D03*
D15*
%TO.P,SW17,B,B*%
%TO.N,RE_B1*%
X161925000Y-54531250D03*
%TO.P,SW17,C,C*%
%TO.N,GND*%
X161925000Y-57031250D03*
D16*
%TO.P,SW17,MP*%
%TO.N,N/C*%
X169425000Y-51431250D03*
X169425000Y-62631250D03*
D15*
%TO.P,SW17,S1,S1*%
%TO.N,C4*%
X176425000Y-59531250D03*
%TO.P,SW17,S2,S2*%
%TO.N,Net-(D17-A)*%
X176425000Y-54531250D03*
%TD*%
D32*
%TO.N,GND*%
X179486091Y-103342909D03*
%TO.N,C1*%
X150197735Y-99905735D03*
%TO.N,C2*%
X150114000Y-100838000D03*
%TO.N,MOSI*%
X157099000Y-95250000D03*
%TO.N,GND*%
X153670000Y-98044000D03*
X155702000Y-98425000D03*
X159639000Y-96139000D03*
X162941000Y-95758000D03*
X148799000Y-98595983D03*
X151257000Y-98044000D03*
%TO.N,Net-(U1-VDD3P3_CPU)*%
X151384000Y-101473000D03*
X147701000Y-101854000D03*
X147955000Y-97574000D03*
X155194000Y-100642000D03*
X155575000Y-99372000D03*
%TO.N,C3*%
X152100000Y-100261000D03*
X148717000Y-97574000D03*
X149699000Y-99060000D03*
%TO.N,RE_B1*%
X156649000Y-94199330D03*
X160147000Y-68199000D03*
X160340926Y-57978926D03*
%TO.N,RE_A1*%
X160655000Y-68453000D03*
X157284000Y-91059000D03*
%TO.N,C4*%
X152733278Y-100076000D03*
X162433000Y-96139000D03*
%TO.N,C5*%
X153183278Y-101150000D03*
X148717000Y-103886000D03*
X145415000Y-104013000D03*
X140462000Y-64135000D03*
%TO.N,RE_B2*%
X152679823Y-93160000D03*
X152527000Y-92260000D03*
%TO.N,RE_A2*%
X154686000Y-93980000D03*
X153161301Y-92710699D03*
%TO.N,Net-(J2-CC2)*%
X177254000Y-108121116D03*
X176276000Y-112698000D03*
%TO.N,GND*%
X177811000Y-105537000D03*
X175895000Y-104902000D03*
X165607301Y-95884301D03*
X168656000Y-96901000D03*
%TO.N,Net-(U1-XTAL_N)*%
X144653000Y-88938998D03*
X143064801Y-95949199D03*
%TO.N,Net-(U1-XTAL_P)*%
X146431000Y-96774000D03*
X147447000Y-100838000D03*
%TO.N,Net-(U1-VDD3P3_CPU)*%
X153670000Y-102235000D03*
X151892000Y-108585000D03*
%TO.N,VBUS*%
X170053000Y-95885000D03*
X178435000Y-102997000D03*
X168783000Y-91948000D03*
X168734285Y-93266715D03*
%TO.N,Net-(J2-D+-PadA6)*%
X177038000Y-100584000D03*
X166878000Y-91186000D03*
%TO.N,CS*%
X156210000Y-99822000D03*
%TO.N,VCC*%
X158218253Y-95512565D03*
%TO.N,SCK*%
X157734959Y-95384387D03*
D33*
%TO.N,Net-(U1-CHIP_EN)*%
X114554000Y-66802000D03*
%TO.N,C2*%
X108458000Y-117094000D03*
%TO.N,C1*%
X109728000Y-116494000D03*
D32*
%TO.N,Net-(U1-VDD3P3_CPU)*%
X148799000Y-102789395D03*
%TD*%
D34*
%TO.N,Net-(U1-VDD3P3_CPU)*%
X150515000Y-94194000D02*
X150650000Y-94329000D01*
X148884000Y-94194000D02*
X150515000Y-94194000D01*
X148463000Y-94615000D02*
X148884000Y-94194000D01*
X148864000Y-95524000D02*
X148463000Y-95123000D01*
X149955000Y-95524000D02*
X148864000Y-95524000D01*
X148463000Y-95123000D02*
X148463000Y-94615000D01*
%TO.N,GND*%
X181054000Y-104981000D02*
X179451000Y-103378000D01*
X181054000Y-114048785D02*
X181054000Y-104981000D01*
X180183785Y-114919000D02*
X181054000Y-114048785D01*
X179451000Y-103378000D02*
X179486091Y-103342909D01*
X178420215Y-114919000D02*
X180183785Y-114919000D01*
%TO.N,C1*%
X150197735Y-99905735D02*
X150241000Y-99949000D01*
%TO.N,GND*%
X157353000Y-98425000D02*
X155702000Y-98425000D01*
X159639000Y-96139000D02*
X157353000Y-98425000D01*
X164273000Y-95758000D02*
X162941000Y-95758000D01*
X165354000Y-94677000D02*
X164273000Y-95758000D01*
X146185655Y-100455595D02*
X144819000Y-101822250D01*
X147191594Y-100455595D02*
X146185655Y-100455595D01*
X148799000Y-98848189D02*
X147191594Y-100455595D01*
X148799000Y-98595983D02*
X148799000Y-98848189D01*
X152400000Y-96901000D02*
X151257000Y-98044000D01*
X152400000Y-96774000D02*
X152400000Y-96901000D01*
%TO.N,Net-(U1-VDD3P3_CPU)*%
X148844000Y-102744396D02*
X148799000Y-102789395D01*
X148083396Y-102744396D02*
X148844000Y-102744396D01*
X147701000Y-102362000D02*
X148083396Y-102744396D01*
X147701000Y-101854000D02*
X147701000Y-102362000D01*
X151650000Y-101207000D02*
X151650000Y-101104000D01*
X151384000Y-101473000D02*
X151650000Y-101207000D01*
X147955000Y-97577158D02*
X147955000Y-97574000D01*
X149508158Y-96024000D02*
X147955000Y-97577158D01*
X149955000Y-96024000D02*
X149508158Y-96024000D01*
X151650000Y-101104000D02*
X151650000Y-99219000D01*
X152527000Y-101981000D02*
X151650000Y-101104000D01*
X153416000Y-101981000D02*
X152527000Y-101981000D01*
X153670000Y-102235000D02*
X153416000Y-101981000D01*
X155194000Y-100965000D02*
X155194000Y-100642000D01*
X154178000Y-101981000D02*
X155194000Y-100965000D01*
X153670000Y-102235000D02*
X153924000Y-101981000D01*
X153924000Y-101981000D02*
X154178000Y-101981000D01*
X155575000Y-99254000D02*
X155575000Y-99372000D01*
X154845000Y-98524000D02*
X155575000Y-99254000D01*
X154845000Y-98524000D02*
X154845000Y-98024000D01*
%TO.N,C5*%
X153183278Y-99252278D02*
X153150000Y-99219000D01*
X153183278Y-101150000D02*
X153183278Y-99252278D01*
%TO.N,C3*%
X149955000Y-97024000D02*
X149955000Y-97524000D01*
X149955000Y-96524000D02*
X149955000Y-97024000D01*
X152249000Y-99764842D02*
X152214000Y-99729842D01*
X152214000Y-99729842D02*
X152214000Y-99283000D01*
X152249000Y-100112000D02*
X152249000Y-99764842D01*
X152214000Y-99283000D02*
X152150000Y-99219000D01*
X152100000Y-100261000D02*
X152249000Y-100112000D01*
X149905000Y-97574000D02*
X149955000Y-97524000D01*
X148717000Y-97574000D02*
X149905000Y-97574000D01*
X149650000Y-99060000D02*
X149699000Y-99060000D01*
X149650000Y-98829000D02*
X149650000Y-99060000D01*
X149955000Y-98524000D02*
X149650000Y-98829000D01*
%TO.N,RE_B1*%
X160340926Y-68005074D02*
X160147000Y-68199000D01*
X160340926Y-57978926D02*
X160340926Y-68005074D01*
X155324330Y-95524000D02*
X156649000Y-94199330D01*
X154845000Y-95524000D02*
X155324330Y-95524000D01*
%TO.N,RE_A1*%
X160655000Y-68453000D02*
X161925000Y-67183000D01*
X161925000Y-67183000D02*
X161925000Y-59531250D01*
X157333000Y-91059000D02*
X157284000Y-91059000D01*
X157333000Y-94166057D02*
X157333000Y-91059000D01*
X155475057Y-96024000D02*
X157333000Y-94166057D01*
X154845000Y-96024000D02*
X155475057Y-96024000D01*
%TO.N,C4*%
X152650000Y-99992722D02*
X152733278Y-100076000D01*
X152650000Y-99219000D02*
X152650000Y-99992722D01*
X162433000Y-73523250D02*
X162433000Y-96139000D01*
X176425000Y-59531250D02*
X162433000Y-73523250D01*
%TO.N,C5*%
X145542000Y-103886000D02*
X148717000Y-103886000D01*
X145415000Y-104013000D02*
X145542000Y-103886000D01*
X140462000Y-61668250D02*
X140462000Y-64135000D01*
X138325000Y-59531250D02*
X140462000Y-61668250D01*
%TO.N,RE_B2*%
X153150000Y-93630177D02*
X153150000Y-94329000D01*
X152679823Y-93160000D02*
X153150000Y-93630177D01*
X152527000Y-92309000D02*
X152527000Y-92260000D01*
X152273000Y-92309000D02*
X152527000Y-92309000D01*
X126577000Y-66613000D02*
X152273000Y-92309000D01*
X126577000Y-57283250D02*
X126577000Y-66613000D01*
X123825000Y-54531250D02*
X126577000Y-57283250D01*
%TO.N,RE_A2*%
X154686000Y-94865000D02*
X154845000Y-95024000D01*
X154686000Y-93980000D02*
X154686000Y-94865000D01*
X153162000Y-92710000D02*
X153161301Y-92710699D01*
X151892000Y-92710000D02*
X153162000Y-92710000D01*
X123825000Y-64643000D02*
X151892000Y-92710000D01*
X123825000Y-59531250D02*
X123825000Y-64643000D01*
%TO.N,GND*%
X177951000Y-113484000D02*
X178387000Y-113048000D01*
X180477000Y-114919000D02*
X178420215Y-114919000D01*
X178420215Y-114919000D02*
X177951000Y-114449785D01*
X182144000Y-116586000D02*
X180477000Y-114919000D01*
X177951000Y-114449785D02*
X177951000Y-113484000D01*
%TO.N,Net-(J2-CC2)*%
X177327116Y-108048000D02*
X178387000Y-108048000D01*
X177254000Y-108121116D02*
X177327116Y-108048000D01*
%TO.N,Net-(J2-D+-PadA6)*%
X177410000Y-109048000D02*
X178387000Y-109048000D01*
X176804000Y-108442000D02*
X177410000Y-109048000D01*
X177172000Y-107198260D02*
X176804000Y-107566260D01*
X177172000Y-106859100D02*
X177172000Y-107198260D01*
X177361000Y-106670100D02*
X177172000Y-106859100D01*
X177361000Y-105334740D02*
X177361000Y-106670100D01*
X176804000Y-107566260D02*
X176804000Y-108442000D01*
X176856160Y-104829900D02*
X177361000Y-105334740D01*
X176856160Y-100765840D02*
X176856160Y-104829900D01*
X177038000Y-100584000D02*
X176856160Y-100765840D01*
%TO.N,Net-(J2-D--PadA7)*%
X177342900Y-109548000D02*
X177410000Y-109548000D01*
X176403000Y-108608100D02*
X177342900Y-109548000D01*
X176403000Y-107348000D02*
X176403000Y-108608100D01*
X176455160Y-107348000D02*
X176403000Y-107348000D01*
X176771000Y-107032160D02*
X176455160Y-107348000D01*
X176455160Y-104996000D02*
X176960000Y-105500840D01*
X176960000Y-105500840D02*
X176960000Y-106504000D01*
X176455160Y-100351192D02*
X176455160Y-104996000D01*
X176771000Y-106693000D02*
X176771000Y-107032160D01*
X167894000Y-91790032D02*
X176455160Y-100351192D01*
X176960000Y-106504000D02*
X176771000Y-106693000D01*
X167894000Y-89727000D02*
X167894000Y-91790032D01*
%TO.N,Net-(J2-CC2)*%
X176276000Y-113818000D02*
X176276000Y-112698000D01*
X179044000Y-116586000D02*
X176276000Y-113818000D01*
%TO.N,GND*%
X177811000Y-105972000D02*
X178387000Y-106548000D01*
X177811000Y-105537000D02*
X177811000Y-105972000D01*
X173990000Y-104902000D02*
X175895000Y-104902000D01*
X172720000Y-106172000D02*
X173990000Y-104902000D01*
X165607301Y-94930301D02*
X165354000Y-94677000D01*
X165607301Y-95884301D02*
X165607301Y-94930301D01*
X172720000Y-100965000D02*
X168656000Y-96901000D01*
X172720000Y-106172000D02*
X172720000Y-100965000D01*
%TO.N,unconnected-(U1-LNA_IN-Pad1)*%
X149952000Y-95027000D02*
X149764000Y-95027000D01*
X149955000Y-95024000D02*
X149952000Y-95027000D01*
%TO.N,Net-(U1-XTAL_N)*%
X145503000Y-88900000D02*
X146392000Y-89789000D01*
X144945998Y-88900000D02*
X145503000Y-88900000D01*
X144691998Y-88900000D02*
X144945998Y-88900000D01*
X144653000Y-88938998D02*
X144691998Y-88900000D01*
X144819000Y-97634100D02*
X143099450Y-95914550D01*
X143099450Y-95914550D02*
X143064801Y-95949199D01*
X144819000Y-99522250D02*
X144819000Y-97634100D01*
%TO.N,Net-(U1-XTAL_P)*%
X147447000Y-100894250D02*
X146519000Y-101822250D01*
X147447000Y-100838000D02*
X147447000Y-100894250D01*
X146392000Y-96813000D02*
X146431000Y-96774000D01*
%TO.N,GND*%
X144819000Y-113217000D02*
X142748000Y-115288000D01*
X144819000Y-101822250D02*
X144819000Y-113217000D01*
%TO.N,Net-(U1-XTAL_N)*%
X144907000Y-99434250D02*
X144819000Y-99522250D01*
%TO.N,Net-(U1-XTAL_P)*%
X146392000Y-91643800D02*
X146392000Y-96813000D01*
%TO.N,Net-(U1-XTAL_N)*%
X152150000Y-93815058D02*
X152150000Y-94329000D01*
X148123942Y-89789000D02*
X152150000Y-93815058D01*
X146392000Y-89789000D02*
X148123942Y-89789000D01*
%TO.N,Net-(U1-XTAL_P)*%
X151650000Y-93882158D02*
X151650000Y-94329000D01*
X149411642Y-91643800D02*
X151650000Y-93882158D01*
X146392000Y-91643800D02*
X149411642Y-91643800D01*
%TO.N,Net-(C1-Pad1)*%
X144692000Y-89789000D02*
X144692000Y-91643800D01*
%TO.N,Net-(U1-VDD3P3_CPU)*%
X149048000Y-111429000D02*
X151892000Y-108585000D01*
X149048000Y-117588000D02*
X149048000Y-111429000D01*
%TO.N,GND*%
X141194000Y-116842000D02*
X142748000Y-115288000D01*
X132170000Y-116842000D02*
X141194000Y-116842000D01*
%TO.N,Net-(J1-Pin_1)*%
X133216000Y-119888000D02*
X132170000Y-118842000D01*
X142748000Y-119888000D02*
X133216000Y-119888000D01*
%TO.N,Net-(U1-VDD3P3_CPU)*%
X149048000Y-117588000D02*
X142748000Y-117588000D01*
%TO.N,VBUS*%
X169799000Y-95631000D02*
X169799000Y-95312000D01*
X170053000Y-95885000D02*
X169799000Y-95631000D01*
X169799000Y-95312000D02*
X169164000Y-94677000D01*
X180653000Y-105146215D02*
X178503785Y-102997000D01*
X180653000Y-107043008D02*
X180653000Y-105146215D01*
X178503785Y-102997000D02*
X178435000Y-102997000D01*
X180112008Y-107584000D02*
X180653000Y-107043008D01*
X178623000Y-107584000D02*
X180112008Y-107584000D01*
X178387000Y-107348000D02*
X178623000Y-107584000D01*
X179164000Y-112248000D02*
X178387000Y-112248000D01*
X179814000Y-111598000D02*
X179164000Y-112248000D01*
X179164000Y-107348000D02*
X179814000Y-107998000D01*
X179814000Y-107998000D02*
X179814000Y-111598000D01*
X178387000Y-107348000D02*
X179164000Y-107348000D01*
X164410000Y-112248000D02*
X178387000Y-112248000D01*
X162358000Y-114300000D02*
X164410000Y-112248000D01*
X169164000Y-91313000D02*
X169164000Y-89727000D01*
X168783000Y-91694000D02*
X169164000Y-91313000D01*
X168783000Y-91948000D02*
X168783000Y-91694000D01*
X168768934Y-93232066D02*
X168734285Y-93266715D01*
X169164000Y-93627132D02*
X168768934Y-93232066D01*
X169164000Y-94677000D02*
X169164000Y-93627132D01*
%TO.N,Net-(J2-D+-PadA6)*%
X166624000Y-90932000D02*
X166878000Y-91186000D01*
X166624000Y-89727000D02*
X166624000Y-90932000D01*
%TO.N,GND*%
X165354000Y-89727000D02*
X165354000Y-94677000D01*
X172984751Y-81121250D02*
X176053750Y-81121250D01*
X165354000Y-88752001D02*
X172984751Y-81121250D01*
X165354000Y-89727000D02*
X165354000Y-88752001D01*
%TO.N,CS*%
X154753000Y-99822000D02*
X154150000Y-99219000D01*
X156210000Y-99822000D02*
X154753000Y-99822000D01*
%TO.N,VCC*%
X158218253Y-95547790D02*
X158218253Y-95512565D01*
X154845000Y-97524000D02*
X156242043Y-97524000D01*
X156242043Y-97524000D02*
X158218253Y-95547790D01*
%TO.N,SCK*%
X157734959Y-95463984D02*
X157734959Y-95384387D01*
X156174943Y-97024000D02*
X157734959Y-95463984D01*
X154845000Y-97024000D02*
X156174943Y-97024000D01*
%TO.N,MOSI*%
X155825000Y-96524000D02*
X154845000Y-96524000D01*
X157099000Y-95250000D02*
X155825000Y-96524000D01*
%TO.N,Net-(J2-CC1)*%
X175820000Y-109525100D02*
X175820000Y-106172000D01*
X178387000Y-111048000D02*
X177342900Y-111048000D01*
X177342900Y-111048000D02*
X175820000Y-109525100D01*
%TO.N,Net-(J2-D--PadA7)*%
X177410000Y-110548000D02*
X178387000Y-110548000D01*
X177361000Y-110499000D02*
X177410000Y-110548000D01*
X177361000Y-109597000D02*
X177361000Y-110499000D01*
X177410000Y-109548000D02*
X177361000Y-109597000D01*
X178387000Y-109548000D02*
X177410000Y-109548000D01*
%TO.N,Net-(J2-D+-PadA6)*%
X179413000Y-109097000D02*
X179364000Y-109048000D01*
X179413000Y-109999000D02*
X179413000Y-109097000D01*
X178387000Y-110048000D02*
X179364000Y-110048000D01*
X179364000Y-110048000D02*
X179413000Y-109999000D01*
X179364000Y-109048000D02*
X178387000Y-109048000D01*
%TO.N,D+*%
X165501000Y-96627000D02*
X166624000Y-95504000D01*
X158135000Y-92730000D02*
X162032000Y-96627000D01*
X158135000Y-88834840D02*
X158135000Y-92730000D01*
X155927160Y-86627000D02*
X158135000Y-88834840D01*
X166624000Y-95504000D02*
X166624000Y-94677000D01*
X153732000Y-86627000D02*
X155927160Y-86627000D01*
X152781000Y-87578000D02*
X153732000Y-86627000D01*
X162032000Y-96627000D02*
X165501000Y-96627000D01*
%TO.N,D-*%
X167894000Y-95504000D02*
X167894000Y-94677000D01*
X166370000Y-97028000D02*
X167894000Y-95504000D01*
X161798000Y-97028000D02*
X166370000Y-97028000D01*
X157734000Y-92964000D02*
X161798000Y-97028000D01*
X155067000Y-87578000D02*
X157734000Y-90245000D01*
X157734000Y-90245000D02*
X157734000Y-92964000D01*
%TO.N,Net-(U1-GPIO18{slash}USB_D-)*%
X155067000Y-91694000D02*
X155067000Y-90678000D01*
X154150000Y-92611000D02*
X155067000Y-91694000D01*
X154150000Y-94329000D02*
X154150000Y-92611000D01*
%TO.N,Net-(U1-GPIO19{slash}USB_D+)*%
X152781000Y-91694000D02*
X152781000Y-90678000D01*
X153650000Y-92563000D02*
X152781000Y-91694000D01*
X153650000Y-94329000D02*
X153650000Y-92563000D01*
%TO.N,Net-(U1-VDD3P3_CPU)*%
X150650000Y-94329000D02*
X151150000Y-94329000D01*
X149955000Y-95524000D02*
X149955000Y-96024000D01*
%TO.N,Net-(U1-CHIP_EN)*%
X149508158Y-98024000D02*
X149955000Y-98024000D01*
X159258000Y-114300000D02*
X158608000Y-114300000D01*
X145776000Y-98024000D02*
X149955000Y-98024000D01*
X114554000Y-66802000D02*
X145776000Y-98024000D01*
%TO.N,C3*%
X97790000Y-90170000D02*
X97790000Y-109220000D01*
X97790000Y-71120000D02*
X97790000Y-90170000D01*
%TO.N,C2*%
X78740000Y-90170000D02*
X78740000Y-109220000D01*
X78740000Y-71120000D02*
X78740000Y-90170000D01*
X78740000Y-52070000D02*
X78740000Y-71120000D01*
%TO.N,C1*%
X59690000Y-71120000D02*
X59690000Y-109220000D01*
X59690000Y-52070000D02*
X59690000Y-71120000D01*
%TO.N,Net-(U1-CHIP_EN)*%
X149249000Y-98283158D02*
X149508158Y-98024000D01*
X158608000Y-114300000D02*
X149249000Y-104941000D01*
X149249000Y-104941000D02*
X149249000Y-98283158D01*
%TO.N,GND*%
X123825000Y-57031250D02*
X121403750Y-54610000D01*
X121403750Y-54610000D02*
X91440000Y-54610000D01*
%TO.N,C2*%
X78740000Y-109220000D02*
X86614000Y-117094000D01*
X86614000Y-117094000D02*
X108458000Y-117094000D01*
X151150000Y-99802000D02*
X150114000Y-100838000D01*
X151150000Y-99219000D02*
X151150000Y-99802000D01*
%TO.N,C1*%
X59690000Y-109220000D02*
X68165000Y-117695000D01*
X68165000Y-117695000D02*
X108873000Y-117695000D01*
X108873000Y-117695000D02*
X109728000Y-116840000D01*
X109728000Y-116840000D02*
X109728000Y-116494000D01*
X150197735Y-99905735D02*
X150197735Y-99671265D01*
X150197735Y-99671265D02*
X150650000Y-99219000D01*
%TD*%
M02*
