M48
; DRILL file {KiCad 9.0.6} date 2025-11-25T22:13:03-0800
; FORMAT={-:-/ absolute / metric / decimal}
; #@! TF.CreationDate,2025-11-25T22:13:03-08:00
; #@! TF.GenerationSoftware,Kicad,Pcbnew,9.0.6
; #@! TF.FileFunction,NonPlated,1,2,NPTH
FMAT,2
METRIC
; #@! TA.AperFunction,NonPlated,NPTH,ComponentDrill
T1C0.650
; #@! TA.AperFunction,NonPlated,NPTH,ComponentDrill
T2C1.750
; #@! TA.AperFunction,NonPlated,NPTH,ComponentDrill
T3C4.000
%
G90
G05
T1
X179.832Y-106.908
X179.832Y-112.688
T2
X52.07Y-57.15
X52.07Y-76.2
X52.07Y-95.25
X52.07Y-114.3
X62.23Y-57.15
X62.23Y-76.2
X62.23Y-95.25
X62.23Y-114.3
X71.12Y-57.15
X71.12Y-76.2
X71.12Y-95.25
X71.12Y-114.3
X81.28Y-57.15
X81.28Y-76.2
X81.28Y-95.25
X81.28Y-114.3
X90.17Y-57.15
X90.17Y-76.2
X90.17Y-95.25
X90.17Y-114.3
X100.33Y-57.15
X100.33Y-76.2
X100.33Y-95.25
X100.33Y-114.3
T3
X57.15Y-57.15
X57.15Y-76.2
X57.15Y-95.25
X57.15Y-114.3
X76.2Y-57.15
X76.2Y-76.2
X76.2Y-95.25
X76.2Y-114.3
X95.25Y-57.15
X95.25Y-76.2
X95.25Y-95.25
X95.25Y-114.3
M30
