%TF.GenerationSoftware,KiCad,Pcbnew,9.0.6*%
%TF.CreationDate,2025-11-25T22:15:10-08:00*%
%TF.ProjectId,idkpad,69646b70-6164-42e6-9b69-6361645f7063,rev?*%
%TF.SameCoordinates,Original*%
%TF.FileFunction,Legend,Bot*%
%TF.FilePolarity,Positive*%
%FSLAX46Y46*%
G04 Gerber Fmt 4.6, Leading zero omitted, Abs format (unit mm)*
G04 Created by KiCad (PCBNEW 9.0.6) date 2025-11-25 22:15:10*
%MOMM*%
%LPD*%
G01*
G04 APERTURE LIST*
%ADD10C,0.150000*%
%ADD11C,0.120000*%
%ADD12C,0.152400*%
G04 APERTURE END LIST*
D10*
X128434523Y-64638450D02*
X128291666Y-64686069D01*
X128291666Y-64686069D02*
X128053571Y-64686069D01*
X128053571Y-64686069D02*
X127958333Y-64638450D01*
X127958333Y-64638450D02*
X127910714Y-64590830D01*
X127910714Y-64590830D02*
X127863095Y-64495592D01*
X127863095Y-64495592D02*
X127863095Y-64400354D01*
X127863095Y-64400354D02*
X127910714Y-64305116D01*
X127910714Y-64305116D02*
X127958333Y-64257497D01*
X127958333Y-64257497D02*
X128053571Y-64209878D01*
X128053571Y-64209878D02*
X128244047Y-64162259D01*
X128244047Y-64162259D02*
X128339285Y-64114640D01*
X128339285Y-64114640D02*
X128386904Y-64067021D01*
X128386904Y-64067021D02*
X128434523Y-63971783D01*
X128434523Y-63971783D02*
X128434523Y-63876545D01*
X128434523Y-63876545D02*
X128386904Y-63781307D01*
X128386904Y-63781307D02*
X128339285Y-63733688D01*
X128339285Y-63733688D02*
X128244047Y-63686069D01*
X128244047Y-63686069D02*
X128005952Y-63686069D01*
X128005952Y-63686069D02*
X127863095Y-63733688D01*
X127529761Y-63686069D02*
X127291666Y-64686069D01*
X127291666Y-64686069D02*
X127101190Y-63971783D01*
X127101190Y-63971783D02*
X126910714Y-64686069D01*
X126910714Y-64686069D02*
X126672619Y-63686069D01*
X125767857Y-64686069D02*
X126339285Y-64686069D01*
X126053571Y-64686069D02*
X126053571Y-63686069D01*
X126053571Y-63686069D02*
X126148809Y-63828926D01*
X126148809Y-63828926D02*
X126244047Y-63924164D01*
X126244047Y-63924164D02*
X126339285Y-63971783D01*
X125291666Y-64686069D02*
X125101190Y-64686069D01*
X125101190Y-64686069D02*
X125005952Y-64638450D01*
X125005952Y-64638450D02*
X124958333Y-64590830D01*
X124958333Y-64590830D02*
X124863095Y-64447973D01*
X124863095Y-64447973D02*
X124815476Y-64257497D01*
X124815476Y-64257497D02*
X124815476Y-63876545D01*
X124815476Y-63876545D02*
X124863095Y-63781307D01*
X124863095Y-63781307D02*
X124910714Y-63733688D01*
X124910714Y-63733688D02*
X125005952Y-63686069D01*
X125005952Y-63686069D02*
X125196428Y-63686069D01*
X125196428Y-63686069D02*
X125291666Y-63733688D01*
X125291666Y-63733688D02*
X125339285Y-63781307D01*
X125339285Y-63781307D02*
X125386904Y-63876545D01*
X125386904Y-63876545D02*
X125386904Y-64114640D01*
X125386904Y-64114640D02*
X125339285Y-64209878D01*
X125339285Y-64209878D02*
X125291666Y-64257497D01*
X125291666Y-64257497D02*
X125196428Y-64305116D01*
X125196428Y-64305116D02*
X125005952Y-64305116D01*
X125005952Y-64305116D02*
X124910714Y-64257497D01*
X124910714Y-64257497D02*
X124863095Y-64209878D01*
X124863095Y-64209878D02*
X124815476Y-64114640D01*
X85798819Y-49299905D02*
X84798819Y-49299905D01*
X84798819Y-49299905D02*
X84798819Y-49538000D01*
X84798819Y-49538000D02*
X84846438Y-49680857D01*
X84846438Y-49680857D02*
X84941676Y-49776095D01*
X84941676Y-49776095D02*
X85036914Y-49823714D01*
X85036914Y-49823714D02*
X85227390Y-49871333D01*
X85227390Y-49871333D02*
X85370247Y-49871333D01*
X85370247Y-49871333D02*
X85560723Y-49823714D01*
X85560723Y-49823714D02*
X85655961Y-49776095D01*
X85655961Y-49776095D02*
X85751200Y-49680857D01*
X85751200Y-49680857D02*
X85798819Y-49538000D01*
X85798819Y-49538000D02*
X85798819Y-49299905D01*
X84894057Y-50252286D02*
X84846438Y-50299905D01*
X84846438Y-50299905D02*
X84798819Y-50395143D01*
X84798819Y-50395143D02*
X84798819Y-50633238D01*
X84798819Y-50633238D02*
X84846438Y-50728476D01*
X84846438Y-50728476D02*
X84894057Y-50776095D01*
X84894057Y-50776095D02*
X84989295Y-50823714D01*
X84989295Y-50823714D02*
X85084533Y-50823714D01*
X85084533Y-50823714D02*
X85227390Y-50776095D01*
X85227390Y-50776095D02*
X85798819Y-50204667D01*
X85798819Y-50204667D02*
X85798819Y-50823714D01*
X84798819Y-47376400D02*
X85036914Y-47376400D01*
X84941676Y-47138305D02*
X85036914Y-47376400D01*
X85036914Y-47376400D02*
X84941676Y-47614495D01*
X85227390Y-47233543D02*
X85036914Y-47376400D01*
X85036914Y-47376400D02*
X85227390Y-47519257D01*
X84798819Y-47376400D02*
X85036914Y-47376400D01*
X84941676Y-47138305D02*
X85036914Y-47376400D01*
X85036914Y-47376400D02*
X84941676Y-47614495D01*
X85227390Y-47233543D02*
X85036914Y-47376400D01*
X85036914Y-47376400D02*
X85227390Y-47519257D01*
X86306819Y-106227714D02*
X85306819Y-106227714D01*
X85306819Y-106227714D02*
X85306819Y-106465809D01*
X85306819Y-106465809D02*
X85354438Y-106608666D01*
X85354438Y-106608666D02*
X85449676Y-106703904D01*
X85449676Y-106703904D02*
X85544914Y-106751523D01*
X85544914Y-106751523D02*
X85735390Y-106799142D01*
X85735390Y-106799142D02*
X85878247Y-106799142D01*
X85878247Y-106799142D02*
X86068723Y-106751523D01*
X86068723Y-106751523D02*
X86163961Y-106703904D01*
X86163961Y-106703904D02*
X86259200Y-106608666D01*
X86259200Y-106608666D02*
X86306819Y-106465809D01*
X86306819Y-106465809D02*
X86306819Y-106227714D01*
X86306819Y-107751523D02*
X86306819Y-107180095D01*
X86306819Y-107465809D02*
X85306819Y-107465809D01*
X85306819Y-107465809D02*
X85449676Y-107370571D01*
X85449676Y-107370571D02*
X85544914Y-107275333D01*
X85544914Y-107275333D02*
X85592533Y-107180095D01*
X85640152Y-108608666D02*
X86306819Y-108608666D01*
X85259200Y-108370571D02*
X85973485Y-108132476D01*
X85973485Y-108132476D02*
X85973485Y-108751523D01*
X85306819Y-104780400D02*
X85544914Y-104780400D01*
X85449676Y-104542305D02*
X85544914Y-104780400D01*
X85544914Y-104780400D02*
X85449676Y-105018495D01*
X85735390Y-104637543D02*
X85544914Y-104780400D01*
X85544914Y-104780400D02*
X85735390Y-104923257D01*
X85306819Y-104780400D02*
X85544914Y-104780400D01*
X85449676Y-104542305D02*
X85544914Y-104780400D01*
X85544914Y-104780400D02*
X85449676Y-105018495D01*
X85735390Y-104637543D02*
X85544914Y-104780400D01*
X85544914Y-104780400D02*
X85735390Y-104923257D01*
X180921902Y-75462203D02*
X181588569Y-75462203D01*
X181017140Y-75462203D02*
X180969521Y-75509822D01*
X180969521Y-75509822D02*
X180921902Y-75605060D01*
X180921902Y-75605060D02*
X180921902Y-75747917D01*
X180921902Y-75747917D02*
X180969521Y-75843155D01*
X180969521Y-75843155D02*
X181064759Y-75890774D01*
X181064759Y-75890774D02*
X181588569Y-75890774D01*
X181588569Y-76366965D02*
X180921902Y-76366965D01*
X180588569Y-76366965D02*
X180636188Y-76319346D01*
X180636188Y-76319346D02*
X180683807Y-76366965D01*
X180683807Y-76366965D02*
X180636188Y-76414584D01*
X180636188Y-76414584D02*
X180588569Y-76366965D01*
X180588569Y-76366965D02*
X180683807Y-76366965D01*
X181540950Y-77271726D02*
X181588569Y-77176488D01*
X181588569Y-77176488D02*
X181588569Y-76986012D01*
X181588569Y-76986012D02*
X181540950Y-76890774D01*
X181540950Y-76890774D02*
X181493330Y-76843155D01*
X181493330Y-76843155D02*
X181398092Y-76795536D01*
X181398092Y-76795536D02*
X181112378Y-76795536D01*
X181112378Y-76795536D02*
X181017140Y-76843155D01*
X181017140Y-76843155D02*
X180969521Y-76890774D01*
X180969521Y-76890774D02*
X180921902Y-76986012D01*
X180921902Y-76986012D02*
X180921902Y-77176488D01*
X180921902Y-77176488D02*
X180969521Y-77271726D01*
X181540950Y-78081250D02*
X181588569Y-77986012D01*
X181588569Y-77986012D02*
X181588569Y-77795536D01*
X181588569Y-77795536D02*
X181540950Y-77700298D01*
X181540950Y-77700298D02*
X181445711Y-77652679D01*
X181445711Y-77652679D02*
X181064759Y-77652679D01*
X181064759Y-77652679D02*
X180969521Y-77700298D01*
X180969521Y-77700298D02*
X180921902Y-77795536D01*
X180921902Y-77795536D02*
X180921902Y-77986012D01*
X180921902Y-77986012D02*
X180969521Y-78081250D01*
X180969521Y-78081250D02*
X181064759Y-78128869D01*
X181064759Y-78128869D02*
X181159997Y-78128869D01*
X181159997Y-78128869D02*
X181255235Y-77652679D01*
X181493330Y-78557441D02*
X181540950Y-78605060D01*
X181540950Y-78605060D02*
X181588569Y-78557441D01*
X181588569Y-78557441D02*
X181540950Y-78509822D01*
X181540950Y-78509822D02*
X181493330Y-78557441D01*
X181493330Y-78557441D02*
X181588569Y-78557441D01*
X181207616Y-78557441D02*
X180636188Y-78509822D01*
X180636188Y-78509822D02*
X180588569Y-78557441D01*
X180588569Y-78557441D02*
X180636188Y-78605060D01*
X180636188Y-78605060D02*
X181207616Y-78557441D01*
X181207616Y-78557441D02*
X180588569Y-78557441D01*
X180921902Y-78938393D02*
X181588569Y-79176488D01*
X181588569Y-79176488D02*
X180921902Y-79414583D01*
X181588569Y-79795536D02*
X180921902Y-79795536D01*
X180588569Y-79795536D02*
X180636188Y-79747917D01*
X180636188Y-79747917D02*
X180683807Y-79795536D01*
X180683807Y-79795536D02*
X180636188Y-79843155D01*
X180636188Y-79843155D02*
X180588569Y-79795536D01*
X180588569Y-79795536D02*
X180683807Y-79795536D01*
X181540950Y-80652678D02*
X181588569Y-80557440D01*
X181588569Y-80557440D02*
X181588569Y-80366964D01*
X181588569Y-80366964D02*
X181540950Y-80271726D01*
X181540950Y-80271726D02*
X181445711Y-80224107D01*
X181445711Y-80224107D02*
X181064759Y-80224107D01*
X181064759Y-80224107D02*
X180969521Y-80271726D01*
X180969521Y-80271726D02*
X180921902Y-80366964D01*
X180921902Y-80366964D02*
X180921902Y-80557440D01*
X180921902Y-80557440D02*
X180969521Y-80652678D01*
X180969521Y-80652678D02*
X181064759Y-80700297D01*
X181064759Y-80700297D02*
X181159997Y-80700297D01*
X181159997Y-80700297D02*
X181255235Y-80224107D01*
X180921902Y-81033631D02*
X181588569Y-81224107D01*
X181588569Y-81224107D02*
X181112378Y-81414583D01*
X181112378Y-81414583D02*
X181588569Y-81605059D01*
X181588569Y-81605059D02*
X180921902Y-81795535D01*
X180184338Y-78036069D02*
X179851005Y-79036069D01*
X179851005Y-79036069D02*
X179517672Y-78036069D01*
X178612910Y-78940830D02*
X178660529Y-78988450D01*
X178660529Y-78988450D02*
X178803386Y-79036069D01*
X178803386Y-79036069D02*
X178898624Y-79036069D01*
X178898624Y-79036069D02*
X179041481Y-78988450D01*
X179041481Y-78988450D02*
X179136719Y-78893211D01*
X179136719Y-78893211D02*
X179184338Y-78797973D01*
X179184338Y-78797973D02*
X179231957Y-78607497D01*
X179231957Y-78607497D02*
X179231957Y-78464640D01*
X179231957Y-78464640D02*
X179184338Y-78274164D01*
X179184338Y-78274164D02*
X179136719Y-78178926D01*
X179136719Y-78178926D02*
X179041481Y-78083688D01*
X179041481Y-78083688D02*
X178898624Y-78036069D01*
X178898624Y-78036069D02*
X178803386Y-78036069D01*
X178803386Y-78036069D02*
X178660529Y-78083688D01*
X178660529Y-78083688D02*
X178612910Y-78131307D01*
X177612910Y-78940830D02*
X177660529Y-78988450D01*
X177660529Y-78988450D02*
X177803386Y-79036069D01*
X177803386Y-79036069D02*
X177898624Y-79036069D01*
X177898624Y-79036069D02*
X178041481Y-78988450D01*
X178041481Y-78988450D02*
X178136719Y-78893211D01*
X178136719Y-78893211D02*
X178184338Y-78797973D01*
X178184338Y-78797973D02*
X178231957Y-78607497D01*
X178231957Y-78607497D02*
X178231957Y-78464640D01*
X178231957Y-78464640D02*
X178184338Y-78274164D01*
X178184338Y-78274164D02*
X178136719Y-78178926D01*
X178136719Y-78178926D02*
X178041481Y-78083688D01*
X178041481Y-78083688D02*
X177898624Y-78036069D01*
X177898624Y-78036069D02*
X177803386Y-78036069D01*
X177803386Y-78036069D02*
X177660529Y-78083688D01*
X177660529Y-78083688D02*
X177612910Y-78131307D01*
X178565291Y-84020830D02*
X178612910Y-84068450D01*
X178612910Y-84068450D02*
X178755767Y-84116069D01*
X178755767Y-84116069D02*
X178851005Y-84116069D01*
X178851005Y-84116069D02*
X178993862Y-84068450D01*
X178993862Y-84068450D02*
X179089100Y-83973211D01*
X179089100Y-83973211D02*
X179136719Y-83877973D01*
X179136719Y-83877973D02*
X179184338Y-83687497D01*
X179184338Y-83687497D02*
X179184338Y-83544640D01*
X179184338Y-83544640D02*
X179136719Y-83354164D01*
X179136719Y-83354164D02*
X179089100Y-83258926D01*
X179089100Y-83258926D02*
X178993862Y-83163688D01*
X178993862Y-83163688D02*
X178851005Y-83116069D01*
X178851005Y-83116069D02*
X178755767Y-83116069D01*
X178755767Y-83116069D02*
X178612910Y-83163688D01*
X178612910Y-83163688D02*
X178565291Y-83211307D01*
X178184338Y-84068450D02*
X178041481Y-84116069D01*
X178041481Y-84116069D02*
X177803386Y-84116069D01*
X177803386Y-84116069D02*
X177708148Y-84068450D01*
X177708148Y-84068450D02*
X177660529Y-84020830D01*
X177660529Y-84020830D02*
X177612910Y-83925592D01*
X177612910Y-83925592D02*
X177612910Y-83830354D01*
X177612910Y-83830354D02*
X177660529Y-83735116D01*
X177660529Y-83735116D02*
X177708148Y-83687497D01*
X177708148Y-83687497D02*
X177803386Y-83639878D01*
X177803386Y-83639878D02*
X177993862Y-83592259D01*
X177993862Y-83592259D02*
X178089100Y-83544640D01*
X178089100Y-83544640D02*
X178136719Y-83497021D01*
X178136719Y-83497021D02*
X178184338Y-83401783D01*
X178184338Y-83401783D02*
X178184338Y-83306545D01*
X178184338Y-83306545D02*
X178136719Y-83211307D01*
X178136719Y-83211307D02*
X178089100Y-83163688D01*
X178089100Y-83163688D02*
X177993862Y-83116069D01*
X177993862Y-83116069D02*
X177755767Y-83116069D01*
X177755767Y-83116069D02*
X177612910Y-83163688D01*
X179708148Y-80623688D02*
X179803386Y-80576069D01*
X179803386Y-80576069D02*
X179946243Y-80576069D01*
X179946243Y-80576069D02*
X180089100Y-80623688D01*
X180089100Y-80623688D02*
X180184338Y-80718926D01*
X180184338Y-80718926D02*
X180231957Y-80814164D01*
X180231957Y-80814164D02*
X180279576Y-81004640D01*
X180279576Y-81004640D02*
X180279576Y-81147497D01*
X180279576Y-81147497D02*
X180231957Y-81337973D01*
X180231957Y-81337973D02*
X180184338Y-81433211D01*
X180184338Y-81433211D02*
X180089100Y-81528450D01*
X180089100Y-81528450D02*
X179946243Y-81576069D01*
X179946243Y-81576069D02*
X179851005Y-81576069D01*
X179851005Y-81576069D02*
X179708148Y-81528450D01*
X179708148Y-81528450D02*
X179660529Y-81480830D01*
X179660529Y-81480830D02*
X179660529Y-81147497D01*
X179660529Y-81147497D02*
X179851005Y-81147497D01*
X179231957Y-81576069D02*
X179231957Y-80576069D01*
X179231957Y-80576069D02*
X178660529Y-81576069D01*
X178660529Y-81576069D02*
X178660529Y-80576069D01*
X178184338Y-81576069D02*
X178184338Y-80576069D01*
X178184338Y-80576069D02*
X177946243Y-80576069D01*
X177946243Y-80576069D02*
X177803386Y-80623688D01*
X177803386Y-80623688D02*
X177708148Y-80718926D01*
X177708148Y-80718926D02*
X177660529Y-80814164D01*
X177660529Y-80814164D02*
X177612910Y-81004640D01*
X177612910Y-81004640D02*
X177612910Y-81147497D01*
X177612910Y-81147497D02*
X177660529Y-81337973D01*
X177660529Y-81337973D02*
X177708148Y-81433211D01*
X177708148Y-81433211D02*
X177803386Y-81528450D01*
X177803386Y-81528450D02*
X177946243Y-81576069D01*
X177946243Y-81576069D02*
X178184338Y-81576069D01*
X180184338Y-76448450D02*
X180041481Y-76496069D01*
X180041481Y-76496069D02*
X179803386Y-76496069D01*
X179803386Y-76496069D02*
X179708148Y-76448450D01*
X179708148Y-76448450D02*
X179660529Y-76400830D01*
X179660529Y-76400830D02*
X179612910Y-76305592D01*
X179612910Y-76305592D02*
X179612910Y-76210354D01*
X179612910Y-76210354D02*
X179660529Y-76115116D01*
X179660529Y-76115116D02*
X179708148Y-76067497D01*
X179708148Y-76067497D02*
X179803386Y-76019878D01*
X179803386Y-76019878D02*
X179993862Y-75972259D01*
X179993862Y-75972259D02*
X180089100Y-75924640D01*
X180089100Y-75924640D02*
X180136719Y-75877021D01*
X180136719Y-75877021D02*
X180184338Y-75781783D01*
X180184338Y-75781783D02*
X180184338Y-75686545D01*
X180184338Y-75686545D02*
X180136719Y-75591307D01*
X180136719Y-75591307D02*
X180089100Y-75543688D01*
X180089100Y-75543688D02*
X179993862Y-75496069D01*
X179993862Y-75496069D02*
X179755767Y-75496069D01*
X179755767Y-75496069D02*
X179612910Y-75543688D01*
X178612910Y-76400830D02*
X178660529Y-76448450D01*
X178660529Y-76448450D02*
X178803386Y-76496069D01*
X178803386Y-76496069D02*
X178898624Y-76496069D01*
X178898624Y-76496069D02*
X179041481Y-76448450D01*
X179041481Y-76448450D02*
X179136719Y-76353211D01*
X179136719Y-76353211D02*
X179184338Y-76257973D01*
X179184338Y-76257973D02*
X179231957Y-76067497D01*
X179231957Y-76067497D02*
X179231957Y-75924640D01*
X179231957Y-75924640D02*
X179184338Y-75734164D01*
X179184338Y-75734164D02*
X179136719Y-75638926D01*
X179136719Y-75638926D02*
X179041481Y-75543688D01*
X179041481Y-75543688D02*
X178898624Y-75496069D01*
X178898624Y-75496069D02*
X178803386Y-75496069D01*
X178803386Y-75496069D02*
X178660529Y-75543688D01*
X178660529Y-75543688D02*
X178612910Y-75591307D01*
X178184338Y-76496069D02*
X178184338Y-75496069D01*
X177612910Y-76496069D02*
X178041481Y-75924640D01*
X177612910Y-75496069D02*
X178184338Y-76067497D01*
X180803385Y-73956069D02*
X180803385Y-72956069D01*
X180803385Y-72956069D02*
X180470052Y-73670354D01*
X180470052Y-73670354D02*
X180136719Y-72956069D01*
X180136719Y-72956069D02*
X180136719Y-73956069D01*
X179470052Y-72956069D02*
X179279576Y-72956069D01*
X179279576Y-72956069D02*
X179184338Y-73003688D01*
X179184338Y-73003688D02*
X179089100Y-73098926D01*
X179089100Y-73098926D02*
X179041481Y-73289402D01*
X179041481Y-73289402D02*
X179041481Y-73622735D01*
X179041481Y-73622735D02*
X179089100Y-73813211D01*
X179089100Y-73813211D02*
X179184338Y-73908450D01*
X179184338Y-73908450D02*
X179279576Y-73956069D01*
X179279576Y-73956069D02*
X179470052Y-73956069D01*
X179470052Y-73956069D02*
X179565290Y-73908450D01*
X179565290Y-73908450D02*
X179660528Y-73813211D01*
X179660528Y-73813211D02*
X179708147Y-73622735D01*
X179708147Y-73622735D02*
X179708147Y-73289402D01*
X179708147Y-73289402D02*
X179660528Y-73098926D01*
X179660528Y-73098926D02*
X179565290Y-73003688D01*
X179565290Y-73003688D02*
X179470052Y-72956069D01*
X178660528Y-73908450D02*
X178517671Y-73956069D01*
X178517671Y-73956069D02*
X178279576Y-73956069D01*
X178279576Y-73956069D02*
X178184338Y-73908450D01*
X178184338Y-73908450D02*
X178136719Y-73860830D01*
X178136719Y-73860830D02*
X178089100Y-73765592D01*
X178089100Y-73765592D02*
X178089100Y-73670354D01*
X178089100Y-73670354D02*
X178136719Y-73575116D01*
X178136719Y-73575116D02*
X178184338Y-73527497D01*
X178184338Y-73527497D02*
X178279576Y-73479878D01*
X178279576Y-73479878D02*
X178470052Y-73432259D01*
X178470052Y-73432259D02*
X178565290Y-73384640D01*
X178565290Y-73384640D02*
X178612909Y-73337021D01*
X178612909Y-73337021D02*
X178660528Y-73241783D01*
X178660528Y-73241783D02*
X178660528Y-73146545D01*
X178660528Y-73146545D02*
X178612909Y-73051307D01*
X178612909Y-73051307D02*
X178565290Y-73003688D01*
X178565290Y-73003688D02*
X178470052Y-72956069D01*
X178470052Y-72956069D02*
X178231957Y-72956069D01*
X178231957Y-72956069D02*
X178089100Y-73003688D01*
X177660528Y-73956069D02*
X177660528Y-72956069D01*
X105610819Y-86669714D02*
X104610819Y-86669714D01*
X104610819Y-86669714D02*
X104610819Y-86907809D01*
X104610819Y-86907809D02*
X104658438Y-87050666D01*
X104658438Y-87050666D02*
X104753676Y-87145904D01*
X104753676Y-87145904D02*
X104848914Y-87193523D01*
X104848914Y-87193523D02*
X105039390Y-87241142D01*
X105039390Y-87241142D02*
X105182247Y-87241142D01*
X105182247Y-87241142D02*
X105372723Y-87193523D01*
X105372723Y-87193523D02*
X105467961Y-87145904D01*
X105467961Y-87145904D02*
X105563200Y-87050666D01*
X105563200Y-87050666D02*
X105610819Y-86907809D01*
X105610819Y-86907809D02*
X105610819Y-86669714D01*
X105610819Y-88193523D02*
X105610819Y-87622095D01*
X105610819Y-87907809D02*
X104610819Y-87907809D01*
X104610819Y-87907809D02*
X104753676Y-87812571D01*
X104753676Y-87812571D02*
X104848914Y-87717333D01*
X104848914Y-87717333D02*
X104896533Y-87622095D01*
X105610819Y-89145904D02*
X105610819Y-88574476D01*
X105610819Y-88860190D02*
X104610819Y-88860190D01*
X104610819Y-88860190D02*
X104753676Y-88764952D01*
X104753676Y-88764952D02*
X104848914Y-88669714D01*
X104848914Y-88669714D02*
X104896533Y-88574476D01*
X104610819Y-85222400D02*
X104848914Y-85222400D01*
X104753676Y-84984305D02*
X104848914Y-85222400D01*
X104848914Y-85222400D02*
X104753676Y-85460495D01*
X105039390Y-85079543D02*
X104848914Y-85222400D01*
X104848914Y-85222400D02*
X105039390Y-85365257D01*
X104610819Y-85222400D02*
X104848914Y-85222400D01*
X104753676Y-84984305D02*
X104848914Y-85222400D01*
X104848914Y-85222400D02*
X104753676Y-85460495D01*
X105039390Y-85079543D02*
X104848914Y-85222400D01*
X104848914Y-85222400D02*
X105039390Y-85365257D01*
X86306819Y-86669714D02*
X85306819Y-86669714D01*
X85306819Y-86669714D02*
X85306819Y-86907809D01*
X85306819Y-86907809D02*
X85354438Y-87050666D01*
X85354438Y-87050666D02*
X85449676Y-87145904D01*
X85449676Y-87145904D02*
X85544914Y-87193523D01*
X85544914Y-87193523D02*
X85735390Y-87241142D01*
X85735390Y-87241142D02*
X85878247Y-87241142D01*
X85878247Y-87241142D02*
X86068723Y-87193523D01*
X86068723Y-87193523D02*
X86163961Y-87145904D01*
X86163961Y-87145904D02*
X86259200Y-87050666D01*
X86259200Y-87050666D02*
X86306819Y-86907809D01*
X86306819Y-86907809D02*
X86306819Y-86669714D01*
X86306819Y-88193523D02*
X86306819Y-87622095D01*
X86306819Y-87907809D02*
X85306819Y-87907809D01*
X85306819Y-87907809D02*
X85449676Y-87812571D01*
X85449676Y-87812571D02*
X85544914Y-87717333D01*
X85544914Y-87717333D02*
X85592533Y-87622095D01*
X85306819Y-88812571D02*
X85306819Y-88907809D01*
X85306819Y-88907809D02*
X85354438Y-89003047D01*
X85354438Y-89003047D02*
X85402057Y-89050666D01*
X85402057Y-89050666D02*
X85497295Y-89098285D01*
X85497295Y-89098285D02*
X85687771Y-89145904D01*
X85687771Y-89145904D02*
X85925866Y-89145904D01*
X85925866Y-89145904D02*
X86116342Y-89098285D01*
X86116342Y-89098285D02*
X86211580Y-89050666D01*
X86211580Y-89050666D02*
X86259200Y-89003047D01*
X86259200Y-89003047D02*
X86306819Y-88907809D01*
X86306819Y-88907809D02*
X86306819Y-88812571D01*
X86306819Y-88812571D02*
X86259200Y-88717333D01*
X86259200Y-88717333D02*
X86211580Y-88669714D01*
X86211580Y-88669714D02*
X86116342Y-88622095D01*
X86116342Y-88622095D02*
X85925866Y-88574476D01*
X85925866Y-88574476D02*
X85687771Y-88574476D01*
X85687771Y-88574476D02*
X85497295Y-88622095D01*
X85497295Y-88622095D02*
X85402057Y-88669714D01*
X85402057Y-88669714D02*
X85354438Y-88717333D01*
X85354438Y-88717333D02*
X85306819Y-88812571D01*
X85306819Y-85222400D02*
X85544914Y-85222400D01*
X85449676Y-84984305D02*
X85544914Y-85222400D01*
X85544914Y-85222400D02*
X85449676Y-85460495D01*
X85735390Y-85079543D02*
X85544914Y-85222400D01*
X85544914Y-85222400D02*
X85735390Y-85365257D01*
X85306819Y-85222400D02*
X85544914Y-85222400D01*
X85449676Y-84984305D02*
X85544914Y-85222400D01*
X85544914Y-85222400D02*
X85449676Y-85460495D01*
X85735390Y-85079543D02*
X85544914Y-85222400D01*
X85544914Y-85222400D02*
X85735390Y-85365257D01*
X105610819Y-106227714D02*
X104610819Y-106227714D01*
X104610819Y-106227714D02*
X104610819Y-106465809D01*
X104610819Y-106465809D02*
X104658438Y-106608666D01*
X104658438Y-106608666D02*
X104753676Y-106703904D01*
X104753676Y-106703904D02*
X104848914Y-106751523D01*
X104848914Y-106751523D02*
X105039390Y-106799142D01*
X105039390Y-106799142D02*
X105182247Y-106799142D01*
X105182247Y-106799142D02*
X105372723Y-106751523D01*
X105372723Y-106751523D02*
X105467961Y-106703904D01*
X105467961Y-106703904D02*
X105563200Y-106608666D01*
X105563200Y-106608666D02*
X105610819Y-106465809D01*
X105610819Y-106465809D02*
X105610819Y-106227714D01*
X105610819Y-107751523D02*
X105610819Y-107180095D01*
X105610819Y-107465809D02*
X104610819Y-107465809D01*
X104610819Y-107465809D02*
X104753676Y-107370571D01*
X104753676Y-107370571D02*
X104848914Y-107275333D01*
X104848914Y-107275333D02*
X104896533Y-107180095D01*
X104610819Y-108656285D02*
X104610819Y-108180095D01*
X104610819Y-108180095D02*
X105087009Y-108132476D01*
X105087009Y-108132476D02*
X105039390Y-108180095D01*
X105039390Y-108180095D02*
X104991771Y-108275333D01*
X104991771Y-108275333D02*
X104991771Y-108513428D01*
X104991771Y-108513428D02*
X105039390Y-108608666D01*
X105039390Y-108608666D02*
X105087009Y-108656285D01*
X105087009Y-108656285D02*
X105182247Y-108703904D01*
X105182247Y-108703904D02*
X105420342Y-108703904D01*
X105420342Y-108703904D02*
X105515580Y-108656285D01*
X105515580Y-108656285D02*
X105563200Y-108608666D01*
X105563200Y-108608666D02*
X105610819Y-108513428D01*
X105610819Y-108513428D02*
X105610819Y-108275333D01*
X105610819Y-108275333D02*
X105563200Y-108180095D01*
X105563200Y-108180095D02*
X105515580Y-108132476D01*
X104610819Y-104780400D02*
X104848914Y-104780400D01*
X104753676Y-104542305D02*
X104848914Y-104780400D01*
X104848914Y-104780400D02*
X104753676Y-105018495D01*
X105039390Y-104637543D02*
X104848914Y-104780400D01*
X104848914Y-104780400D02*
X105039390Y-104923257D01*
X104610819Y-104780400D02*
X104848914Y-104780400D01*
X104753676Y-104542305D02*
X104848914Y-104780400D01*
X104848914Y-104780400D02*
X104753676Y-105018495D01*
X105039390Y-104637543D02*
X104848914Y-104780400D01*
X104848914Y-104780400D02*
X105039390Y-104923257D01*
X105356819Y-68603905D02*
X104356819Y-68603905D01*
X104356819Y-68603905D02*
X104356819Y-68842000D01*
X104356819Y-68842000D02*
X104404438Y-68984857D01*
X104404438Y-68984857D02*
X104499676Y-69080095D01*
X104499676Y-69080095D02*
X104594914Y-69127714D01*
X104594914Y-69127714D02*
X104785390Y-69175333D01*
X104785390Y-69175333D02*
X104928247Y-69175333D01*
X104928247Y-69175333D02*
X105118723Y-69127714D01*
X105118723Y-69127714D02*
X105213961Y-69080095D01*
X105213961Y-69080095D02*
X105309200Y-68984857D01*
X105309200Y-68984857D02*
X105356819Y-68842000D01*
X105356819Y-68842000D02*
X105356819Y-68603905D01*
X104356819Y-69508667D02*
X104356819Y-70175333D01*
X104356819Y-70175333D02*
X105356819Y-69746762D01*
X104356819Y-66680400D02*
X104594914Y-66680400D01*
X104499676Y-66442305D02*
X104594914Y-66680400D01*
X104594914Y-66680400D02*
X104499676Y-66918495D01*
X104785390Y-66537543D02*
X104594914Y-66680400D01*
X104594914Y-66680400D02*
X104785390Y-66823257D01*
X104356819Y-66680400D02*
X104594914Y-66680400D01*
X104499676Y-66442305D02*
X104594914Y-66680400D01*
X104594914Y-66680400D02*
X104499676Y-66918495D01*
X104785390Y-66537543D02*
X104594914Y-66680400D01*
X104594914Y-66680400D02*
X104785390Y-66823257D01*
X141531180Y-60650285D02*
X142531180Y-60650285D01*
X142531180Y-60650285D02*
X142531180Y-60412190D01*
X142531180Y-60412190D02*
X142483561Y-60269333D01*
X142483561Y-60269333D02*
X142388323Y-60174095D01*
X142388323Y-60174095D02*
X142293085Y-60126476D01*
X142293085Y-60126476D02*
X142102609Y-60078857D01*
X142102609Y-60078857D02*
X141959752Y-60078857D01*
X141959752Y-60078857D02*
X141769276Y-60126476D01*
X141769276Y-60126476D02*
X141674038Y-60174095D01*
X141674038Y-60174095D02*
X141578800Y-60269333D01*
X141578800Y-60269333D02*
X141531180Y-60412190D01*
X141531180Y-60412190D02*
X141531180Y-60650285D01*
X141531180Y-59126476D02*
X141531180Y-59697904D01*
X141531180Y-59412190D02*
X142531180Y-59412190D01*
X142531180Y-59412190D02*
X142388323Y-59507428D01*
X142388323Y-59507428D02*
X142293085Y-59602666D01*
X142293085Y-59602666D02*
X142245466Y-59697904D01*
X142102609Y-58555047D02*
X142150228Y-58650285D01*
X142150228Y-58650285D02*
X142197847Y-58697904D01*
X142197847Y-58697904D02*
X142293085Y-58745523D01*
X142293085Y-58745523D02*
X142340704Y-58745523D01*
X142340704Y-58745523D02*
X142435942Y-58697904D01*
X142435942Y-58697904D02*
X142483561Y-58650285D01*
X142483561Y-58650285D02*
X142531180Y-58555047D01*
X142531180Y-58555047D02*
X142531180Y-58364571D01*
X142531180Y-58364571D02*
X142483561Y-58269333D01*
X142483561Y-58269333D02*
X142435942Y-58221714D01*
X142435942Y-58221714D02*
X142340704Y-58174095D01*
X142340704Y-58174095D02*
X142293085Y-58174095D01*
X142293085Y-58174095D02*
X142197847Y-58221714D01*
X142197847Y-58221714D02*
X142150228Y-58269333D01*
X142150228Y-58269333D02*
X142102609Y-58364571D01*
X142102609Y-58364571D02*
X142102609Y-58555047D01*
X142102609Y-58555047D02*
X142054990Y-58650285D01*
X142054990Y-58650285D02*
X142007371Y-58697904D01*
X142007371Y-58697904D02*
X141912133Y-58745523D01*
X141912133Y-58745523D02*
X141721657Y-58745523D01*
X141721657Y-58745523D02*
X141626419Y-58697904D01*
X141626419Y-58697904D02*
X141578800Y-58650285D01*
X141578800Y-58650285D02*
X141531180Y-58555047D01*
X141531180Y-58555047D02*
X141531180Y-58364571D01*
X141531180Y-58364571D02*
X141578800Y-58269333D01*
X141578800Y-58269333D02*
X141626419Y-58221714D01*
X141626419Y-58221714D02*
X141721657Y-58174095D01*
X141721657Y-58174095D02*
X141912133Y-58174095D01*
X141912133Y-58174095D02*
X142007371Y-58221714D01*
X142007371Y-58221714D02*
X142054990Y-58269333D01*
X142054990Y-58269333D02*
X142102609Y-58364571D01*
X141440819Y-62097600D02*
X141678914Y-62097600D01*
X141583676Y-61859505D02*
X141678914Y-62097600D01*
X141678914Y-62097600D02*
X141583676Y-62335695D01*
X141869390Y-61954743D02*
X141678914Y-62097600D01*
X141678914Y-62097600D02*
X141869390Y-62240457D01*
X142531180Y-62097599D02*
X142293085Y-62097599D01*
X142388323Y-62335694D02*
X142293085Y-62097599D01*
X142293085Y-62097599D02*
X142388323Y-61859504D01*
X142102609Y-62240456D02*
X142293085Y-62097599D01*
X142293085Y-62097599D02*
X142102609Y-61954742D01*
X67002819Y-106227714D02*
X66002819Y-106227714D01*
X66002819Y-106227714D02*
X66002819Y-106465809D01*
X66002819Y-106465809D02*
X66050438Y-106608666D01*
X66050438Y-106608666D02*
X66145676Y-106703904D01*
X66145676Y-106703904D02*
X66240914Y-106751523D01*
X66240914Y-106751523D02*
X66431390Y-106799142D01*
X66431390Y-106799142D02*
X66574247Y-106799142D01*
X66574247Y-106799142D02*
X66764723Y-106751523D01*
X66764723Y-106751523D02*
X66859961Y-106703904D01*
X66859961Y-106703904D02*
X66955200Y-106608666D01*
X66955200Y-106608666D02*
X67002819Y-106465809D01*
X67002819Y-106465809D02*
X67002819Y-106227714D01*
X67002819Y-107751523D02*
X67002819Y-107180095D01*
X67002819Y-107465809D02*
X66002819Y-107465809D01*
X66002819Y-107465809D02*
X66145676Y-107370571D01*
X66145676Y-107370571D02*
X66240914Y-107275333D01*
X66240914Y-107275333D02*
X66288533Y-107180095D01*
X66002819Y-108084857D02*
X66002819Y-108703904D01*
X66002819Y-108703904D02*
X66383771Y-108370571D01*
X66383771Y-108370571D02*
X66383771Y-108513428D01*
X66383771Y-108513428D02*
X66431390Y-108608666D01*
X66431390Y-108608666D02*
X66479009Y-108656285D01*
X66479009Y-108656285D02*
X66574247Y-108703904D01*
X66574247Y-108703904D02*
X66812342Y-108703904D01*
X66812342Y-108703904D02*
X66907580Y-108656285D01*
X66907580Y-108656285D02*
X66955200Y-108608666D01*
X66955200Y-108608666D02*
X67002819Y-108513428D01*
X67002819Y-108513428D02*
X67002819Y-108227714D01*
X67002819Y-108227714D02*
X66955200Y-108132476D01*
X66955200Y-108132476D02*
X66907580Y-108084857D01*
X66002819Y-104780400D02*
X66240914Y-104780400D01*
X66145676Y-104542305D02*
X66240914Y-104780400D01*
X66240914Y-104780400D02*
X66145676Y-105018495D01*
X66431390Y-104637543D02*
X66240914Y-104780400D01*
X66240914Y-104780400D02*
X66431390Y-104923257D01*
X66002819Y-104780400D02*
X66240914Y-104780400D01*
X66145676Y-104542305D02*
X66240914Y-104780400D01*
X66240914Y-104780400D02*
X66145676Y-105018495D01*
X66431390Y-104637543D02*
X66240914Y-104780400D01*
X66240914Y-104780400D02*
X66431390Y-104923257D01*
X180139180Y-60650285D02*
X181139180Y-60650285D01*
X181139180Y-60650285D02*
X181139180Y-60412190D01*
X181139180Y-60412190D02*
X181091561Y-60269333D01*
X181091561Y-60269333D02*
X180996323Y-60174095D01*
X180996323Y-60174095D02*
X180901085Y-60126476D01*
X180901085Y-60126476D02*
X180710609Y-60078857D01*
X180710609Y-60078857D02*
X180567752Y-60078857D01*
X180567752Y-60078857D02*
X180377276Y-60126476D01*
X180377276Y-60126476D02*
X180282038Y-60174095D01*
X180282038Y-60174095D02*
X180186800Y-60269333D01*
X180186800Y-60269333D02*
X180139180Y-60412190D01*
X180139180Y-60412190D02*
X180139180Y-60650285D01*
X180139180Y-59126476D02*
X180139180Y-59697904D01*
X180139180Y-59412190D02*
X181139180Y-59412190D01*
X181139180Y-59412190D02*
X180996323Y-59507428D01*
X180996323Y-59507428D02*
X180901085Y-59602666D01*
X180901085Y-59602666D02*
X180853466Y-59697904D01*
X181139180Y-58793142D02*
X181139180Y-58126476D01*
X181139180Y-58126476D02*
X180139180Y-58555047D01*
X180048819Y-62097600D02*
X180286914Y-62097600D01*
X180191676Y-61859505D02*
X180286914Y-62097600D01*
X180286914Y-62097600D02*
X180191676Y-62335695D01*
X180477390Y-61954743D02*
X180286914Y-62097600D01*
X180286914Y-62097600D02*
X180477390Y-62240457D01*
X181139180Y-62097599D02*
X180901085Y-62097599D01*
X180996323Y-62335694D02*
X180901085Y-62097599D01*
X180901085Y-62097599D02*
X180996323Y-61859504D01*
X180710609Y-62240456D02*
X180901085Y-62097599D01*
X180901085Y-62097599D02*
X180710609Y-61954742D01*
X86052819Y-68603905D02*
X85052819Y-68603905D01*
X85052819Y-68603905D02*
X85052819Y-68842000D01*
X85052819Y-68842000D02*
X85100438Y-68984857D01*
X85100438Y-68984857D02*
X85195676Y-69080095D01*
X85195676Y-69080095D02*
X85290914Y-69127714D01*
X85290914Y-69127714D02*
X85481390Y-69175333D01*
X85481390Y-69175333D02*
X85624247Y-69175333D01*
X85624247Y-69175333D02*
X85814723Y-69127714D01*
X85814723Y-69127714D02*
X85909961Y-69080095D01*
X85909961Y-69080095D02*
X86005200Y-68984857D01*
X86005200Y-68984857D02*
X86052819Y-68842000D01*
X86052819Y-68842000D02*
X86052819Y-68603905D01*
X85052819Y-70032476D02*
X85052819Y-69842000D01*
X85052819Y-69842000D02*
X85100438Y-69746762D01*
X85100438Y-69746762D02*
X85148057Y-69699143D01*
X85148057Y-69699143D02*
X85290914Y-69603905D01*
X85290914Y-69603905D02*
X85481390Y-69556286D01*
X85481390Y-69556286D02*
X85862342Y-69556286D01*
X85862342Y-69556286D02*
X85957580Y-69603905D01*
X85957580Y-69603905D02*
X86005200Y-69651524D01*
X86005200Y-69651524D02*
X86052819Y-69746762D01*
X86052819Y-69746762D02*
X86052819Y-69937238D01*
X86052819Y-69937238D02*
X86005200Y-70032476D01*
X86005200Y-70032476D02*
X85957580Y-70080095D01*
X85957580Y-70080095D02*
X85862342Y-70127714D01*
X85862342Y-70127714D02*
X85624247Y-70127714D01*
X85624247Y-70127714D02*
X85529009Y-70080095D01*
X85529009Y-70080095D02*
X85481390Y-70032476D01*
X85481390Y-70032476D02*
X85433771Y-69937238D01*
X85433771Y-69937238D02*
X85433771Y-69746762D01*
X85433771Y-69746762D02*
X85481390Y-69651524D01*
X85481390Y-69651524D02*
X85529009Y-69603905D01*
X85529009Y-69603905D02*
X85624247Y-69556286D01*
X85052819Y-66680400D02*
X85290914Y-66680400D01*
X85195676Y-66442305D02*
X85290914Y-66680400D01*
X85290914Y-66680400D02*
X85195676Y-66918495D01*
X85481390Y-66537543D02*
X85290914Y-66680400D01*
X85290914Y-66680400D02*
X85481390Y-66823257D01*
X85052819Y-66680400D02*
X85290914Y-66680400D01*
X85195676Y-66442305D02*
X85290914Y-66680400D01*
X85290914Y-66680400D02*
X85195676Y-66918495D01*
X85481390Y-66537543D02*
X85290914Y-66680400D01*
X85290914Y-66680400D02*
X85481390Y-66823257D01*
X67002819Y-49352905D02*
X66002819Y-49352905D01*
X66002819Y-49352905D02*
X66002819Y-49591000D01*
X66002819Y-49591000D02*
X66050438Y-49733857D01*
X66050438Y-49733857D02*
X66145676Y-49829095D01*
X66145676Y-49829095D02*
X66240914Y-49876714D01*
X66240914Y-49876714D02*
X66431390Y-49924333D01*
X66431390Y-49924333D02*
X66574247Y-49924333D01*
X66574247Y-49924333D02*
X66764723Y-49876714D01*
X66764723Y-49876714D02*
X66859961Y-49829095D01*
X66859961Y-49829095D02*
X66955200Y-49733857D01*
X66955200Y-49733857D02*
X67002819Y-49591000D01*
X67002819Y-49591000D02*
X67002819Y-49352905D01*
X67002819Y-50876714D02*
X67002819Y-50305286D01*
X67002819Y-50591000D02*
X66002819Y-50591000D01*
X66002819Y-50591000D02*
X66145676Y-50495762D01*
X66145676Y-50495762D02*
X66240914Y-50400524D01*
X66240914Y-50400524D02*
X66288533Y-50305286D01*
X66002819Y-47429400D02*
X66240914Y-47429400D01*
X66145676Y-47191305D02*
X66240914Y-47429400D01*
X66240914Y-47429400D02*
X66145676Y-47667495D01*
X66431390Y-47286543D02*
X66240914Y-47429400D01*
X66240914Y-47429400D02*
X66431390Y-47572257D01*
X66002819Y-47429400D02*
X66240914Y-47429400D01*
X66145676Y-47191305D02*
X66240914Y-47429400D01*
X66240914Y-47429400D02*
X66145676Y-47667495D01*
X66431390Y-47286543D02*
X66240914Y-47429400D01*
X66240914Y-47429400D02*
X66431390Y-47572257D01*
X67002819Y-68603905D02*
X66002819Y-68603905D01*
X66002819Y-68603905D02*
X66002819Y-68842000D01*
X66002819Y-68842000D02*
X66050438Y-68984857D01*
X66050438Y-68984857D02*
X66145676Y-69080095D01*
X66145676Y-69080095D02*
X66240914Y-69127714D01*
X66240914Y-69127714D02*
X66431390Y-69175333D01*
X66431390Y-69175333D02*
X66574247Y-69175333D01*
X66574247Y-69175333D02*
X66764723Y-69127714D01*
X66764723Y-69127714D02*
X66859961Y-69080095D01*
X66859961Y-69080095D02*
X66955200Y-68984857D01*
X66955200Y-68984857D02*
X67002819Y-68842000D01*
X67002819Y-68842000D02*
X67002819Y-68603905D01*
X66002819Y-70080095D02*
X66002819Y-69603905D01*
X66002819Y-69603905D02*
X66479009Y-69556286D01*
X66479009Y-69556286D02*
X66431390Y-69603905D01*
X66431390Y-69603905D02*
X66383771Y-69699143D01*
X66383771Y-69699143D02*
X66383771Y-69937238D01*
X66383771Y-69937238D02*
X66431390Y-70032476D01*
X66431390Y-70032476D02*
X66479009Y-70080095D01*
X66479009Y-70080095D02*
X66574247Y-70127714D01*
X66574247Y-70127714D02*
X66812342Y-70127714D01*
X66812342Y-70127714D02*
X66907580Y-70080095D01*
X66907580Y-70080095D02*
X66955200Y-70032476D01*
X66955200Y-70032476D02*
X67002819Y-69937238D01*
X67002819Y-69937238D02*
X67002819Y-69699143D01*
X67002819Y-69699143D02*
X66955200Y-69603905D01*
X66955200Y-69603905D02*
X66907580Y-69556286D01*
X66002819Y-66680400D02*
X66240914Y-66680400D01*
X66145676Y-66442305D02*
X66240914Y-66680400D01*
X66240914Y-66680400D02*
X66145676Y-66918495D01*
X66431390Y-66537543D02*
X66240914Y-66680400D01*
X66240914Y-66680400D02*
X66431390Y-66823257D01*
X66002819Y-66680400D02*
X66240914Y-66680400D01*
X66145676Y-66442305D02*
X66240914Y-66680400D01*
X66240914Y-66680400D02*
X66145676Y-66918495D01*
X66431390Y-66537543D02*
X66240914Y-66680400D01*
X66240914Y-66680400D02*
X66431390Y-66823257D01*
X67002819Y-87145905D02*
X66002819Y-87145905D01*
X66002819Y-87145905D02*
X66002819Y-87384000D01*
X66002819Y-87384000D02*
X66050438Y-87526857D01*
X66050438Y-87526857D02*
X66145676Y-87622095D01*
X66145676Y-87622095D02*
X66240914Y-87669714D01*
X66240914Y-87669714D02*
X66431390Y-87717333D01*
X66431390Y-87717333D02*
X66574247Y-87717333D01*
X66574247Y-87717333D02*
X66764723Y-87669714D01*
X66764723Y-87669714D02*
X66859961Y-87622095D01*
X66859961Y-87622095D02*
X66955200Y-87526857D01*
X66955200Y-87526857D02*
X67002819Y-87384000D01*
X67002819Y-87384000D02*
X67002819Y-87145905D01*
X67002819Y-88193524D02*
X67002819Y-88384000D01*
X67002819Y-88384000D02*
X66955200Y-88479238D01*
X66955200Y-88479238D02*
X66907580Y-88526857D01*
X66907580Y-88526857D02*
X66764723Y-88622095D01*
X66764723Y-88622095D02*
X66574247Y-88669714D01*
X66574247Y-88669714D02*
X66193295Y-88669714D01*
X66193295Y-88669714D02*
X66098057Y-88622095D01*
X66098057Y-88622095D02*
X66050438Y-88574476D01*
X66050438Y-88574476D02*
X66002819Y-88479238D01*
X66002819Y-88479238D02*
X66002819Y-88288762D01*
X66002819Y-88288762D02*
X66050438Y-88193524D01*
X66050438Y-88193524D02*
X66098057Y-88145905D01*
X66098057Y-88145905D02*
X66193295Y-88098286D01*
X66193295Y-88098286D02*
X66431390Y-88098286D01*
X66431390Y-88098286D02*
X66526628Y-88145905D01*
X66526628Y-88145905D02*
X66574247Y-88193524D01*
X66574247Y-88193524D02*
X66621866Y-88288762D01*
X66621866Y-88288762D02*
X66621866Y-88479238D01*
X66621866Y-88479238D02*
X66574247Y-88574476D01*
X66574247Y-88574476D02*
X66526628Y-88622095D01*
X66526628Y-88622095D02*
X66431390Y-88669714D01*
X66002819Y-85222400D02*
X66240914Y-85222400D01*
X66145676Y-84984305D02*
X66240914Y-85222400D01*
X66240914Y-85222400D02*
X66145676Y-85460495D01*
X66431390Y-85079543D02*
X66240914Y-85222400D01*
X66240914Y-85222400D02*
X66431390Y-85365257D01*
X66002819Y-85222400D02*
X66240914Y-85222400D01*
X66145676Y-84984305D02*
X66240914Y-85222400D01*
X66240914Y-85222400D02*
X66145676Y-85460495D01*
X66431390Y-85079543D02*
X66240914Y-85222400D01*
X66240914Y-85222400D02*
X66431390Y-85365257D01*
X166534523Y-64638450D02*
X166391666Y-64686069D01*
X166391666Y-64686069D02*
X166153571Y-64686069D01*
X166153571Y-64686069D02*
X166058333Y-64638450D01*
X166058333Y-64638450D02*
X166010714Y-64590830D01*
X166010714Y-64590830D02*
X165963095Y-64495592D01*
X165963095Y-64495592D02*
X165963095Y-64400354D01*
X165963095Y-64400354D02*
X166010714Y-64305116D01*
X166010714Y-64305116D02*
X166058333Y-64257497D01*
X166058333Y-64257497D02*
X166153571Y-64209878D01*
X166153571Y-64209878D02*
X166344047Y-64162259D01*
X166344047Y-64162259D02*
X166439285Y-64114640D01*
X166439285Y-64114640D02*
X166486904Y-64067021D01*
X166486904Y-64067021D02*
X166534523Y-63971783D01*
X166534523Y-63971783D02*
X166534523Y-63876545D01*
X166534523Y-63876545D02*
X166486904Y-63781307D01*
X166486904Y-63781307D02*
X166439285Y-63733688D01*
X166439285Y-63733688D02*
X166344047Y-63686069D01*
X166344047Y-63686069D02*
X166105952Y-63686069D01*
X166105952Y-63686069D02*
X165963095Y-63733688D01*
X165629761Y-63686069D02*
X165391666Y-64686069D01*
X165391666Y-64686069D02*
X165201190Y-63971783D01*
X165201190Y-63971783D02*
X165010714Y-64686069D01*
X165010714Y-64686069D02*
X164772619Y-63686069D01*
X163867857Y-64686069D02*
X164439285Y-64686069D01*
X164153571Y-64686069D02*
X164153571Y-63686069D01*
X164153571Y-63686069D02*
X164248809Y-63828926D01*
X164248809Y-63828926D02*
X164344047Y-63924164D01*
X164344047Y-63924164D02*
X164439285Y-63971783D01*
X163534523Y-63686069D02*
X162867857Y-63686069D01*
X162867857Y-63686069D02*
X163296428Y-64686069D01*
D11*
%TO.C,SW19*%
X123525000Y-61131250D02*
X124125000Y-61131250D01*
X123825000Y-60831250D02*
X123525000Y-61131250D01*
X124125000Y-61131250D02*
X123825000Y-60831250D01*
X124625000Y-50731250D02*
X124625000Y-53531250D01*
X124625000Y-63331250D02*
X124625000Y-60831250D01*
X129425000Y-63331250D02*
X124625000Y-63331250D01*
X129525000Y-50731250D02*
X124625000Y-50731250D01*
X130825000Y-57031250D02*
X131825000Y-57031250D01*
X131325000Y-57531250D02*
X131325000Y-56531250D01*
X133125000Y-63331250D02*
X138025000Y-63331250D01*
X138025000Y-50731250D02*
X133125000Y-50731250D01*
X138025000Y-53331250D02*
X138025000Y-50731250D01*
X138025000Y-58331250D02*
X138025000Y-55731250D01*
X138025000Y-63331250D02*
X138025000Y-60731250D01*
X134325000Y-57031250D02*
G75*
G02*
X128325000Y-57031250I-3000000J0D01*
G01*
X128325000Y-57031250D02*
G75*
G02*
X134325000Y-57031250I3000000J0D01*
G01*
%TO.C,SW11*%
X95050000Y-92550000D02*
X100150000Y-92550000D01*
X91150000Y-88350000D02*
X96250000Y-88350000D01*
X93050000Y-94550000D02*
G75*
G02*
X95050000Y-92550000I2000000J0D01*
G01*
X89150000Y-90350000D02*
G75*
G02*
X91150000Y-88350000I2000000J0D01*
G01*
D12*
%TO.C,D2*%
X84542000Y-51590000D02*
X84542000Y-48486000D01*
X86146000Y-48486000D02*
X86146000Y-51590000D01*
D11*
%TO.C,SW3*%
X95050000Y-54450000D02*
X100150000Y-54450000D01*
X91150000Y-50250000D02*
X96250000Y-50250000D01*
X93050000Y-56450000D02*
G75*
G02*
X95050000Y-54450000I2000000J0D01*
G01*
X89150000Y-52250000D02*
G75*
G02*
X91150000Y-50250000I2000000J0D01*
G01*
%TO.C,SW15*%
X89150000Y-109400000D02*
G75*
G02*
X91150000Y-107400000I2000000J0D01*
G01*
X93050000Y-113600000D02*
G75*
G02*
X95050000Y-111600000I2000000J0D01*
G01*
X91150000Y-107400000D02*
X96250000Y-107400000D01*
X95050000Y-111600000D02*
X100150000Y-111600000D01*
%TO.C,SW14*%
X70100000Y-109400000D02*
G75*
G02*
X72100000Y-107400000I2000000J0D01*
G01*
X74000000Y-113600000D02*
G75*
G02*
X76000000Y-111600000I2000000J0D01*
G01*
X72100000Y-107400000D02*
X77200000Y-107400000D01*
X76000000Y-111600000D02*
X81100000Y-111600000D01*
%TO.C,SW13*%
X51050000Y-109400000D02*
G75*
G02*
X53050000Y-107400000I2000000J0D01*
G01*
X54950000Y-113600000D02*
G75*
G02*
X56950000Y-111600000I2000000J0D01*
G01*
X53050000Y-107400000D02*
X58150000Y-107400000D01*
X56950000Y-111600000D02*
X62050000Y-111600000D01*
%TO.C,SW10*%
X70100000Y-90350000D02*
G75*
G02*
X72100000Y-88350000I2000000J0D01*
G01*
X74000000Y-94550000D02*
G75*
G02*
X76000000Y-92550000I2000000J0D01*
G01*
X72100000Y-88350000D02*
X77200000Y-88350000D01*
X76000000Y-92550000D02*
X81100000Y-92550000D01*
%TO.C,SW9*%
X51050000Y-90350000D02*
G75*
G02*
X53050000Y-88350000I2000000J0D01*
G01*
X54950000Y-94550000D02*
G75*
G02*
X56950000Y-92550000I2000000J0D01*
G01*
X53050000Y-88350000D02*
X58150000Y-88350000D01*
X56950000Y-92550000D02*
X62050000Y-92550000D01*
%TO.C,SW7*%
X89150000Y-71300000D02*
G75*
G02*
X91150000Y-69300000I2000000J0D01*
G01*
X93050000Y-75500000D02*
G75*
G02*
X95050000Y-73500000I2000000J0D01*
G01*
X91150000Y-69300000D02*
X96250000Y-69300000D01*
X95050000Y-73500000D02*
X100150000Y-73500000D01*
%TO.C,SW6*%
X70100000Y-71300000D02*
G75*
G02*
X72100000Y-69300000I2000000J0D01*
G01*
X74000000Y-75500000D02*
G75*
G02*
X76000000Y-73500000I2000000J0D01*
G01*
X72100000Y-69300000D02*
X77200000Y-69300000D01*
X76000000Y-73500000D02*
X81100000Y-73500000D01*
%TO.C,SW5*%
X51050000Y-71300000D02*
G75*
G02*
X53050000Y-69300000I2000000J0D01*
G01*
X54950000Y-75500000D02*
G75*
G02*
X56950000Y-73500000I2000000J0D01*
G01*
X53050000Y-69300000D02*
X58150000Y-69300000D01*
X56950000Y-73500000D02*
X62050000Y-73500000D01*
%TO.C,SW2*%
X70100000Y-52250000D02*
G75*
G02*
X72100000Y-50250000I2000000J0D01*
G01*
X74000000Y-56450000D02*
G75*
G02*
X76000000Y-54450000I2000000J0D01*
G01*
X72100000Y-50250000D02*
X77200000Y-50250000D01*
X76000000Y-54450000D02*
X81100000Y-54450000D01*
%TO.C,SW1*%
X51050000Y-52250000D02*
G75*
G02*
X53050000Y-50250000I2000000J0D01*
G01*
X54950000Y-56450000D02*
G75*
G02*
X56950000Y-54450000I2000000J0D01*
G01*
X53050000Y-50250000D02*
X58150000Y-50250000D01*
X56950000Y-54450000D02*
X62050000Y-54450000D01*
D12*
%TO.C,D14*%
X85050000Y-108994000D02*
X85050000Y-105890000D01*
X86654000Y-105890000D02*
X86654000Y-108994000D01*
%TO.C,Display1*%
D11*
X174783750Y-72231250D02*
X177323750Y-72231250D01*
X177323750Y-84931250D01*
X174783750Y-84931250D01*
X174783750Y-72231250D01*
D12*
%TO.C,D11*%
X104354000Y-89436000D02*
X104354000Y-86332000D01*
X105958000Y-86332000D02*
X105958000Y-89436000D01*
%TO.C,D10*%
X85050000Y-89436000D02*
X85050000Y-86332000D01*
X86654000Y-86332000D02*
X86654000Y-89436000D01*
%TO.C,D15*%
X104354000Y-108994000D02*
X104354000Y-105890000D01*
X105958000Y-105890000D02*
X105958000Y-108994000D01*
%TO.C,D7*%
X104100000Y-70894000D02*
X104100000Y-67790000D01*
X105704000Y-67790000D02*
X105704000Y-70894000D01*
%TO.C,D18*%
X141184000Y-60988000D02*
X141184000Y-57884000D01*
X142788000Y-57884000D02*
X142788000Y-60988000D01*
%TO.C,D13*%
X65746000Y-108994000D02*
X65746000Y-105890000D01*
X67350000Y-105890000D02*
X67350000Y-108994000D01*
%TO.C,D17*%
X179792000Y-60988000D02*
X179792000Y-57884000D01*
X181396000Y-57884000D02*
X181396000Y-60988000D01*
%TO.C,D6*%
X84796000Y-70894000D02*
X84796000Y-67790000D01*
X86400000Y-67790000D02*
X86400000Y-70894000D01*
%TO.C,D1*%
X65746000Y-51643000D02*
X65746000Y-48539000D01*
X67350000Y-48539000D02*
X67350000Y-51643000D01*
%TO.C,D5*%
X65746000Y-70894000D02*
X65746000Y-67790000D01*
X67350000Y-67790000D02*
X67350000Y-70894000D01*
%TO.C,D9*%
X65746000Y-89436000D02*
X65746000Y-86332000D01*
X67350000Y-86332000D02*
X67350000Y-89436000D01*
D11*
%TO.C,SW17*%
X161625000Y-61131250D02*
X162225000Y-61131250D01*
X161925000Y-60831250D02*
X161625000Y-61131250D01*
X162225000Y-61131250D02*
X161925000Y-60831250D01*
X162725000Y-50731250D02*
X162725000Y-53531250D01*
X162725000Y-63331250D02*
X162725000Y-60831250D01*
X167525000Y-63331250D02*
X162725000Y-63331250D01*
X167625000Y-50731250D02*
X162725000Y-50731250D01*
X168925000Y-57031250D02*
X169925000Y-57031250D01*
X169425000Y-57531250D02*
X169425000Y-56531250D01*
X171225000Y-63331250D02*
X176125000Y-63331250D01*
X176125000Y-50731250D02*
X171225000Y-50731250D01*
X176125000Y-53331250D02*
X176125000Y-50731250D01*
X176125000Y-58331250D02*
X176125000Y-55731250D01*
X176125000Y-63331250D02*
X176125000Y-60731250D01*
X172425000Y-57031250D02*
G75*
G02*
X166425000Y-57031250I-3000000J0D01*
G01*
X166425000Y-57031250D02*
G75*
G02*
X172425000Y-57031250I3000000J0D01*
G01*
%TD*%
M02*
