M48
; DRILL file {KiCad 9.0.6} date 2025-11-25T22:13:03-0800
; FORMAT={-:-/ absolute / metric / decimal}
; #@! TF.CreationDate,2025-11-25T22:13:03-08:00
; #@! TF.GenerationSoftware,Kicad,Pcbnew,9.0.6
; #@! TF.FileFunction,Plated,1,2,PTH
FMAT,2
METRIC
; #@! TA.AperFunction,Plated,PTH,ViaDrill
T1C0.100
; #@! TA.AperFunction,Plated,PTH,ViaDrill
T2C0.300
; #@! TA.AperFunction,Plated,PTH,ComponentDrill
T3C0.600
; #@! TA.AperFunction,Plated,PTH,ComponentDrill
T4C0.750
; #@! TA.AperFunction,Plated,PTH,ComponentDrill
T5C1.000
; #@! TA.AperFunction,Plated,PTH,ComponentDrill
T6C1.092
; #@! TA.AperFunction,Plated,PTH,ComponentDrill
T7C2.000
; #@! TA.AperFunction,Plated,PTH,ComponentDrill
T8C3.050
%
G90
G05
T1
X140.462Y-64.135
X143.065Y-95.949
X144.653Y-88.939
X145.415Y-104.013
X146.431Y-96.774
X147.447Y-100.838
X147.701Y-101.854
X147.955Y-97.574
X148.717Y-97.574
X148.717Y-103.886
X148.799Y-98.596
X148.799Y-102.789
X149.699Y-99.06
X150.114Y-100.838
X150.198Y-99.906
X151.257Y-98.044
X151.384Y-101.473
X151.892Y-108.585
X152.1Y-100.261
X152.527Y-92.26
X152.68Y-93.16
X152.733Y-100.076
X153.161Y-92.711
X153.183Y-101.15
X153.67Y-98.044
X153.67Y-102.235
X154.686Y-93.98
X155.194Y-100.642
X155.575Y-99.372
X155.702Y-98.425
X156.21Y-99.822
X156.649Y-94.199
X157.099Y-95.25
X157.284Y-91.059
X157.735Y-95.384
X158.218Y-95.513
X159.639Y-96.139
X160.147Y-68.199
X160.341Y-57.979
X160.655Y-68.453
X162.433Y-96.139
X162.941Y-95.758
X165.607Y-95.884
X166.878Y-91.186
X168.656Y-96.901
X168.734Y-93.267
X168.783Y-91.948
X170.053Y-95.885
X175.895Y-104.902
X176.276Y-112.698
X177.038Y-100.584
X177.254Y-108.121
X177.811Y-105.537
X178.435Y-102.997
X179.486Y-103.343
T2
X108.458Y-117.094
X109.728Y-116.494
X114.554Y-66.802
T4
X132.17Y-116.842
X132.17Y-118.842
T5
X123.825Y-54.531
X123.825Y-57.031
X123.825Y-59.531
X138.325Y-54.531
X138.325Y-59.531
X161.925Y-54.531
X161.925Y-57.031
X161.925Y-59.531
X176.425Y-54.531
X176.425Y-59.531
T6
X176.054Y-73.501
X176.054Y-76.041
X176.054Y-78.581
X176.054Y-81.121
X176.054Y-83.661
T8
X53.34Y-54.61
X53.34Y-73.66
X53.34Y-92.71
X53.34Y-111.76
X59.69Y-52.07
X59.69Y-71.12
X59.69Y-90.17
X59.69Y-109.22
X72.39Y-54.61
X72.39Y-73.66
X72.39Y-92.71
X72.39Y-111.76
X78.74Y-52.07
X78.74Y-71.12
X78.74Y-90.17
X78.74Y-109.22
X91.44Y-54.61
X91.44Y-73.66
X91.44Y-92.71
X91.44Y-111.76
X97.79Y-52.07
X97.79Y-71.12
X97.79Y-90.17
X97.79Y-109.22
T3
G00X178.752Y-105.478
M15
G01X179.852Y-105.478
M16
G05
G00X178.752Y-114.118
M15
G01X179.852Y-114.118
M16
G05
G00X183.182Y-105.478
M15
G01X183.782Y-105.478
M16
G05
G00X183.182Y-114.118
M15
G01X183.782Y-114.118
M16
G05
T7
G00X131.075Y-51.431
M15
G01X131.575Y-51.431
M16
G05
G00X131.075Y-62.631
M15
G01X131.575Y-62.631
M16
G05
G00X169.175Y-51.431
M15
G01X169.675Y-51.431
M16
G05
G00X169.175Y-62.631
M15
G01X169.675Y-62.631
M16
G05
M30
