%TF.GenerationSoftware,KiCad,Pcbnew,9.0.6*%
%TF.CreationDate,2025-11-25T22:15:10-08:00*%
%TF.ProjectId,idkpad,69646b70-6164-42e6-9b69-6361645f7063,rev?*%
%TF.SameCoordinates,Original*%
%TF.FileFunction,Paste,Bot*%
%TF.FilePolarity,Positive*%
%FSLAX46Y46*%
G04 Gerber Fmt 4.6, Leading zero omitted, Abs format (unit mm)*
G04 Created by KiCad (PCBNEW 9.0.6) date 2025-11-25 22:15:10*
%MOMM*%
%LPD*%
G01*
G04 APERTURE LIST*
G04 Aperture macros list*
%AMRoundRect*
0 Rectangle with rounded corners*
0 $1 Rounding radius*
0 $2 $3 $4 $5 $6 $7 $8 $9 X,Y pos of 4 corners*
0 Add a 4 corners polygon primitive as box body*
4,1,4,$2,$3,$4,$5,$6,$7,$8,$9,$2,$3,0*
0 Add four circle primitives for the rounded corners*
1,1,$1+$1,$2,$3*
1,1,$1+$1,$4,$5*
1,1,$1+$1,$6,$7*
1,1,$1+$1,$8,$9*
0 Add four rect primitives between the rounded corners*
20,1,$1+$1,$2,$3,$4,$5,0*
20,1,$1+$1,$4,$5,$6,$7,0*
20,1,$1+$1,$6,$7,$8,$9,0*
20,1,$1+$1,$8,$9,$2,$3,0*%
G04 Aperture macros list end*
%ADD10RoundRect,0.250000X-1.025000X-1.000000X1.025000X-1.000000X1.025000X1.000000X-1.025000X1.000000X0*%
%ADD11R,0.600800X1.111200*%
G04 APERTURE END LIST*
D10*
%TO.C,SW11*%
X101092000Y-90170000D03*
X88165000Y-92710000D03*
%TD*%
D11*
%TO.C,D2*%
X85344000Y-48313000D03*
X85344000Y-51763000D03*
%TD*%
D10*
%TO.C,SW3*%
X101092000Y-52070000D03*
X88165000Y-54610000D03*
%TD*%
%TO.C,SW15*%
X88165000Y-111760000D03*
X101092000Y-109220000D03*
%TD*%
%TO.C,SW14*%
X69115000Y-111760000D03*
X82042000Y-109220000D03*
%TD*%
%TO.C,SW13*%
X50065000Y-111760000D03*
X62992000Y-109220000D03*
%TD*%
%TO.C,SW10*%
X69115000Y-92710000D03*
X82042000Y-90170000D03*
%TD*%
%TO.C,SW9*%
X50065000Y-92710000D03*
X62992000Y-90170000D03*
%TD*%
%TO.C,SW7*%
X88165000Y-73660000D03*
X101092000Y-71120000D03*
%TD*%
%TO.C,SW6*%
X69115000Y-73660000D03*
X82042000Y-71120000D03*
%TD*%
%TO.C,SW5*%
X50065000Y-73660000D03*
X62992000Y-71120000D03*
%TD*%
%TO.C,SW2*%
X69115000Y-54610000D03*
X82042000Y-52070000D03*
%TD*%
%TO.C,SW1*%
X50065000Y-54610000D03*
X62992000Y-52070000D03*
%TD*%
D11*
%TO.C,D14*%
X85852000Y-105717000D03*
X85852000Y-109167000D03*
%TD*%
%TO.C,D11*%
X105156000Y-86159000D03*
X105156000Y-89609000D03*
%TD*%
%TO.C,D10*%
X85852000Y-86159000D03*
X85852000Y-89609000D03*
%TD*%
%TO.C,D15*%
X105156000Y-105717000D03*
X105156000Y-109167000D03*
%TD*%
%TO.C,D7*%
X104902000Y-67617000D03*
X104902000Y-71067000D03*
%TD*%
%TO.C,D18*%
X141986000Y-61161000D03*
X141986000Y-57711000D03*
%TD*%
%TO.C,D13*%
X66548000Y-105717000D03*
X66548000Y-109167000D03*
%TD*%
%TO.C,D17*%
X180594000Y-61161000D03*
X180594000Y-57711000D03*
%TD*%
%TO.C,D6*%
X85598000Y-67617000D03*
X85598000Y-71067000D03*
%TD*%
%TO.C,D1*%
X66548000Y-48366000D03*
X66548000Y-51816000D03*
%TD*%
%TO.C,D5*%
X66548000Y-67617000D03*
X66548000Y-71067000D03*
%TD*%
%TO.C,D9*%
X66548000Y-86159000D03*
X66548000Y-89609000D03*
%TD*%
M02*
